<svg width="191" height="86" viewBox="0 0 191 86" fill="none" xmlns="http://www.w3.org/2000/svg">
<mask id="mask0_22_554" style="mask-type:alpha" maskUnits="userSpaceOnUse" x="0" y="0" width="191" height="86">
<path d="M151.754 23.0646C151.64 22.4455 151.542 21.8836 151.431 21.3242C151.257 20.452 151.424 19.8869 152.569 19.811C153.52 19.7476 154.47 19.6504 155.419 19.5589C157.196 19.3877 158.973 19.213 160.749 19.0349C160.819 19.0314 160.887 19.019 160.954 18.998C161.422 18.8207 161.823 18.9564 162.219 19.2309C163.288 19.9711 164.332 20.755 165.453 21.4074C167.223 22.4372 168.676 23.8547 170.23 25.1475C170.482 25.3581 170.64 25.6991 170.798 26.0021C171.352 27.06 171.888 28.1251 172.429 29.1918C173.181 30.6733 173.932 32.1557 174.682 33.6389C175.754 35.7733 176.831 37.9062 177.884 40.0499C179.274 42.8767 180.643 45.716 182.019 48.5475C183.219 51.024 184.422 53.4994 185.61 55.981C186.498 57.8394 187.355 59.7129 188.238 61.5738C188.912 62.9961 189.602 64.411 190.291 65.826C190.58 66.4176 190.438 66.928 189.84 67.3366C185.875 70.0466 181.909 72.7553 177.943 75.4625C177.699 75.6289 177.447 75.7843 177.214 75.9637C176.797 76.2839 176.372 76.3047 175.901 76.0863C174.833 75.5904 173.76 75.1035 172.682 74.6256C166.887 72.039 161.017 69.6353 155.035 67.516C150.23 65.813 145.378 64.2608 140.445 62.9664C136.489 61.9268 132.492 61.0673 128.454 60.3881C125.43 59.8797 122.401 59.4068 119.366 58.9695C117.688 58.7267 115.995 58.5802 114.309 58.3977C113.655 58.326 112.999 58.2688 112.345 58.2095C112.227 58.1986 112.109 58.2095 111.952 58.2095C111.87 58.7423 111.789 59.2492 111.716 59.7591C111.433 61.7105 111.153 63.6621 110.875 65.6139C110.856 65.7508 110.828 65.8864 110.792 66.0199C110.648 66.5553 110.375 66.7643 109.815 66.7477C109.469 66.7373 109.124 66.6915 108.778 66.6671C106.685 66.52 104.593 66.3427 102.498 66.2382C100.453 66.1343 98.406 66.0823 96.3591 66.0563C93.2014 66.0116 90.0442 66.0807 86.8927 66.2918C84.989 66.4196 83.0874 66.572 81.1853 66.7118C80.5554 66.7581 80.1858 66.5132 80.0661 65.8858C79.8714 64.8664 79.7079 63.8408 79.5533 62.8147C79.3295 61.3264 79.1249 59.8355 78.9109 58.3442C78.8952 58.2807 78.8748 58.2185 78.85 58.1581C78.0624 58.2178 77.2717 58.262 76.4841 58.3405C75.2436 58.4611 74.0026 58.5838 72.7662 58.7382C70.4981 59.0204 68.228 59.2949 65.9677 59.6312C63.6377 59.9785 61.3149 60.3782 58.9922 60.7868C55.4243 61.4158 51.8902 62.208 48.3665 63.0491C40.0708 65.0328 31.9917 67.6719 24.15 71.0289C20.9777 72.3873 17.8574 73.8558 14.8507 75.5546C14.7299 75.6226 14.607 75.6887 14.4811 75.7464C14.1052 75.9189 13.7523 75.8935 13.4025 75.6523C12.7039 75.1688 11.997 74.6994 11.2916 74.2238L1.50816 67.6116C0.555015 66.9675 0.373856 66.4249 0.761674 65.3166C1.31087 63.7488 1.84756 62.1763 2.42747 60.6189C3.40925 57.9746 4.42279 55.3422 5.41602 52.702C6.26297 50.4501 7.08962 48.1909 7.9449 45.9442C8.86109 43.5343 9.80226 41.1338 10.7294 38.728C11.5446 36.6123 12.3431 34.4909 13.1708 32.3804C14.1115 29.9793 15.0719 27.5866 16.0339 25.1943C16.1174 25.005 16.2418 24.8365 16.3983 24.701C17.4295 23.7752 18.4488 22.8328 19.5217 21.9548C20.1745 21.4193 20.9162 20.9926 21.6117 20.5081C22.2796 20.0434 22.9412 19.5698 23.6013 19.0942C23.8585 18.9086 24.1453 18.881 24.4436 18.9086C25.3764 18.9942 26.3088 19.0831 27.2406 19.1753C28.8793 19.3385 30.5178 19.5041 32.1562 19.6722C32.5206 19.7091 32.885 19.7242 33.2411 19.7933C33.5414 19.8516 33.8288 19.9748 34.1656 20.0839C34.7262 19.8339 35.3759 19.9763 36.0052 19.9919C36.9573 20.0153 37.9074 20.126 38.8579 20.1998C40.0505 20.2924 41.2431 20.3818 42.4352 20.479C43.2582 20.5466 43.5284 20.8236 43.6096 21.6424C43.6799 22.3472 43.7616 23.0511 43.8423 23.7903C44.0063 23.8116 44.1546 23.8423 44.3056 23.8495C46.2435 23.976 48.1815 24.1015 50.1197 24.2259C50.3603 24.2413 50.6004 24.1883 50.8121 24.0731C52.4643 23.2289 54.1203 22.3919 55.7887 21.5815C56.0853 21.4447 56.4101 21.3798 56.7366 21.3923C58.6595 21.4641 60.5809 21.5665 62.5028 21.6585C62.607 21.6637 62.7111 21.6585 62.8152 21.6678C63.6002 21.7312 63.8396 21.9834 63.9021 22.7652C63.9406 23.2476 64.0062 23.7279 64.0645 24.2087C64.0703 24.2555 64.1109 24.2981 64.1817 24.4281C64.2858 24.2165 64.3644 24.0601 64.4367 23.8994C64.6642 23.3942 64.8808 22.8842 65.1135 22.3821C65.3326 21.9142 65.7033 21.7276 66.2066 21.7614C67.3305 21.8373 68.4549 21.8976 69.5794 21.9646C69.9604 21.987 70.3415 22.0078 70.7246 22.0338C71.5054 22.0858 71.8407 22.4496 71.8178 23.2393C71.8048 23.7591 71.7657 24.2753 71.7366 24.793C71.7314 24.8923 71.7366 24.9921 71.7366 25.1392H73.1572C73.2727 24.753 73.3966 24.3434 73.5185 23.9332C73.6226 23.5844 73.7194 23.2341 73.8256 22.8863C73.9979 22.3202 74.1983 22.1585 74.798 22.1476C75.474 22.1365 76.1507 22.139 76.8282 22.1549C77.9037 22.1783 78.9823 22.1721 80.0525 22.2589C81.0879 22.3441 82.1176 22.2131 83.1509 22.2771C84.1842 22.341 85.2332 22.3566 86.2717 22.3696C87.3102 22.3826 88.3539 22.367 89.3951 22.3639C91.217 22.3582 93.0359 22.3493 94.8568 22.3478C97.3034 22.3452 99.7501 22.355 102.197 22.3452C103.186 22.3415 104.175 22.3129 105.16 22.2703C105.723 22.2459 106.174 22.4408 106.551 22.8421C107.238 23.574 107.923 24.3096 108.616 25.0363C108.696 25.1199 108.803 25.1725 108.919 25.1844C109.367 25.2006 109.816 25.1912 110.309 25.1912C110.328 24.9963 110.351 24.8471 110.361 24.6974C110.388 24.1292 110.404 23.5605 110.436 22.9929C110.457 22.6165 110.68 22.3504 111.049 22.2433C111.182 22.2037 111.319 22.1805 111.457 22.1741C113.815 22.0946 116.171 21.9943 118.529 21.9553C119.53 21.9387 120.521 21.8045 121.524 21.8134C122.513 21.8227 123.502 21.751 124.486 21.6813C125.089 21.6387 125.514 21.8264 125.81 22.3737C126.156 23.0131 126.565 23.6182 126.923 24.2508C127.101 24.5659 127.326 24.7114 127.72 24.61C127.72 24.3184 127.729 24.0164 127.72 23.7149C127.705 23.299 127.656 22.8863 127.656 22.472C127.656 21.8747 127.929 21.5748 128.525 21.5228C129.353 21.45 130.184 21.396 131.015 21.3409C131.966 21.2781 132.918 21.2192 133.869 21.1641C134.278 21.1407 134.598 21.2863 134.847 21.632C135.384 22.3769 135.946 23.1031 136.501 23.835C136.822 24.2581 136.897 24.2592 137.239 23.8573C137.913 23.0651 138.593 22.2802 139.253 21.476C139.656 20.9832 140.164 20.7612 140.787 20.7249C141.895 20.6604 143.003 20.5842 144.109 20.4961C145.093 20.4161 146.075 20.3116 147.058 20.2128C147.463 20.1723 147.804 20.2705 148.092 20.5767C148.793 21.3211 149.529 22.0348 150.204 22.8016C150.512 23.1509 150.836 23.2393 151.253 23.1618C151.391 23.1348 151.541 23.1057 151.754 23.0646ZM186.746 66.0022L186.838 65.9232C186.763 65.7543 186.692 65.5832 186.612 65.4159C185.563 63.2134 184.504 61.0129 183.463 58.8042C179.512 50.4225 175.445 42.0973 171.261 33.8286C169.5 30.3526 167.695 26.8983 165.899 23.4384C165.767 23.1842 165.615 22.8967 165.392 22.7402C164.114 21.8451 162.815 20.9801 161.513 20.1203C161.352 20.0269 161.166 19.986 160.982 20.0033C158.53 20.2265 156.079 20.4577 153.629 20.6968C153.271 20.7311 152.913 20.7748 152.536 20.8164C152.545 20.9557 152.543 21.057 152.561 21.1553C152.832 22.6368 153.108 24.1183 153.376 25.5988C154.335 30.8958 155.29 36.1933 156.243 41.4914C156.985 45.6663 157.709 49.8445 158.414 54.026C158.473 54.3753 158.615 54.5146 158.935 54.6212C161.598 55.5095 164.255 56.4172 166.914 57.317C167.005 57.3476 167.1 57.3606 167.294 57.4053C165.753 51.7465 164.233 46.1657 162.694 40.5183L166.769 40.3265C166.881 40.6066 166.989 40.8603 167.086 41.1176C169.416 47.307 171.743 53.4978 174.067 59.69C174.199 60.0414 174.385 60.2524 174.738 60.4027C178.217 61.8817 181.65 63.4585 185.039 65.1331C185.611 65.4164 186.177 65.7132 186.746 66.0043V66.0022ZM12.6617 62.012C14.88 55.0793 17.0971 48.1502 19.3129 41.2247L23.1515 40.7725C22.8194 42.3772 22.504 43.8971 22.1911 45.4176C21.8743 46.9605 21.5584 48.5026 21.2437 50.0441C20.9313 51.5703 20.6112 53.0944 20.3155 54.6232C20.0198 56.152 19.6581 57.6767 19.404 59.2892C19.6221 59.2112 19.7518 59.1665 19.8798 59.1187C21.2754 58.5989 22.6685 58.066 24.0677 57.5545C25.0932 57.1797 26.1234 56.8174 27.1604 56.4764C27.5097 56.3615 27.7387 56.2217 27.733 55.81C27.733 55.5542 27.8048 55.2975 27.8434 55.0407C28.2473 52.3376 28.6513 49.6334 29.0552 46.9283C29.4196 44.4986 29.7858 42.0689 30.1536 39.6393C30.5805 36.8322 31.0106 34.0269 31.4441 31.2233C31.8775 28.4197 32.3158 25.6159 32.759 22.812C32.8631 22.1513 32.9584 21.49 33.063 20.7956C32.7798 20.7576 32.5596 20.7207 32.3384 20.6994C29.8356 20.4592 27.3322 20.2253 24.8304 19.9784C24.5551 19.9452 24.2777 20.0197 24.0563 20.1863C23.0932 20.8663 22.1241 21.5372 21.1489 22.1991C20.9189 22.3525 20.7431 22.5744 20.6466 22.8333C19.9215 24.6527 19.1802 26.4606 18.4504 28.2759C14.782 37.3993 11.2796 46.5867 7.82049 55.7913C6.57843 59.097 5.34227 62.405 4.11201 65.7153C4.04746 65.8894 3.88609 66.0615 3.98083 66.2559L12.6617 62.012ZM94.4195 27.8849C94.7422 33.8733 95.0614 39.7952 95.3799 45.7025C96.0046 45.8169 100.368 45.8065 100.82 45.6853C100.679 42.8221 100.536 39.9458 100.393 37.0562C101.021 37.0562 101.572 37.0438 102.123 37.0594C102.766 37.077 102.766 37.0874 102.95 37.6831C103.749 40.2629 104.548 42.8428 105.348 45.4228C105.504 45.9182 105.519 45.9312 106.025 45.952C106.735 45.9806 107.446 45.9993 108.155 46.0373C109.332 46.1002 110.507 46.1844 111.684 46.2384C112.048 46.2551 112.421 46.3336 112.865 46.2114C110.606 42.8809 108.392 39.6148 106.163 36.3254C106.291 36.1611 106.403 36.0098 106.523 35.8648C107.317 34.9021 108.101 33.931 108.914 32.9834C109.163 32.6928 109.187 32.4589 109.035 32.1065C108.211 30.1987 107.421 28.2764 106.613 26.3619C106.229 25.4522 105.817 24.5539 105.453 23.6369C105.313 23.2829 105.111 23.155 104.75 23.1977C104.544 23.2221 104.333 23.207 104.125 23.2091C100.949 23.2429 97.774 23.3079 94.5986 23.3032C90.4523 23.297 86.306 23.2346 82.1572 23.1992C82.0072 23.1992 81.8573 23.2148 81.6621 23.2257C81.5018 24.8201 81.3446 26.3816 81.1863 27.9562L81.7647 28.1407C81.6842 30.1479 81.6038 32.1525 81.5236 34.1546C81.444 36.1819 81.3565 38.2051 81.292 40.2308C81.2285 42.2306 81.0983 44.2293 81.0838 46.2254L94.0171 45.7155C93.7568 43.7745 93.4965 41.8631 93.2363 39.9127L89.2368 40.0166C89.1296 40.2766 89.039 40.498 88.9531 40.707C88.4117 40.8083 85.9052 40.7486 85.5054 40.6228C85.47 38.8715 85.4346 37.1134 85.3977 35.2997L88.9036 34.794C88.8568 33.7501 88.812 32.7568 88.7662 31.74L85.3019 31.6079V27.2934L87.8906 27.1458C88.3503 27.8891 88.3503 27.8896 89.1832 27.8735C90.4138 27.8486 91.6449 27.8127 92.876 27.8028C93.3581 27.7987 93.8412 27.8522 94.4195 27.8849ZM142.812 27.3594C143.269 27.8678 143.706 28.3346 144.118 28.8222C144.318 29.0587 144.526 29.1393 144.838 29.0982C146.213 28.9173 147.592 28.7635 148.968 28.5955C149.46 28.5358 149.95 28.4625 150.473 28.3913C150.415 28.2291 150.39 28.1313 150.346 28.0383C149.305 25.8857 148.264 23.7367 147.23 21.5805C147.105 21.3206 146.958 21.241 146.668 21.2644C144.663 21.4252 142.657 21.5729 140.65 21.7073C140.39 21.725 140.243 21.8482 140.095 22.0281C138.604 23.8326 137.111 25.6346 135.615 27.4343C135.528 27.528 135.465 27.6406 135.429 27.7631C135.394 27.8857 135.387 28.0148 135.411 28.1402C135.703 30.2143 135.979 32.2905 136.252 34.3672C136.615 37.1306 136.973 39.8945 137.327 42.6589C137.363 42.9396 137.477 43.1242 137.728 43.2734C139.68 44.4336 141.627 45.603 143.568 46.7817C143.682 46.857 143.811 46.9066 143.946 46.9271C144.08 46.9476 144.218 46.9384 144.349 46.9002C145.39 46.6325 146.435 46.3804 147.479 46.1293C147.658 46.0861 147.844 46.0773 148.052 46.0456C148.117 46.2535 148.174 46.4157 148.219 46.58C148.672 48.2507 149.133 49.9188 149.567 51.5942C149.646 51.9009 149.764 52.0465 150.087 52.1281C151.597 52.5096 153.102 52.9276 154.608 53.3335C155.117 53.4708 155.626 53.6101 156.235 53.7754C154.478 46.555 152.706 39.4438 150.857 32.3003L142.476 32.8508C142.818 34.257 143.143 35.5924 143.468 36.9315C144.383 37.0027 145.229 37.0718 146.076 37.1332C146.644 37.1748 146.648 37.169 146.753 37.705C146.904 38.4674 147.052 39.2321 147.196 39.999C147.259 40.3322 147.312 40.6669 147.378 41.0506C147.133 41.0781 146.948 41.113 146.764 41.1171C146.157 41.1306 145.547 41.0937 144.942 41.1493C144.101 41.2268 143.405 40.9934 142.74 40.4736C141.793 39.7297 141.922 40.1165 141.768 38.9219C141.748 38.7659 141.721 38.6142 141.701 38.4598C141.407 36.3337 141.114 34.2074 140.822 32.081C140.706 31.2409 140.592 30.4004 140.457 29.5629C140.405 29.2391 140.465 29.0166 140.76 28.818C141.333 28.4318 141.878 27.9977 142.437 27.5866C142.538 27.5122 142.646 27.4587 142.812 27.3594ZM136.149 49.0881C135.385 40.0795 134.606 31.1391 133.77 22.1481L128.759 22.4268C128.798 23.0053 128.833 23.5184 128.869 24.033C128.998 25.8815 129.127 27.73 129.256 29.5785C129.347 30.9093 129.434 32.24 129.516 33.5708C129.525 33.7122 129.588 33.8863 129.325 34.0069C129.237 33.8323 129.138 33.6633 129.064 33.4845C127.653 30.0211 126.243 26.5568 124.835 23.0916C124.65 22.6352 124.643 22.6321 124.159 22.6482C122.928 22.6888 121.697 22.7333 120.466 22.7818C120.333 22.787 120.2 22.8182 120.028 22.8426V28.0554C120.137 28.1007 120.232 28.1438 120.328 28.1786C120.848 28.3653 120.845 28.3647 120.862 28.9007C120.898 30.0443 120.938 31.1879 120.975 32.3284C121.111 36.5529 121.248 40.7773 121.385 45.0018C121.406 45.6568 121.437 46.3112 121.463 47.0265L127.033 47.6799C126.889 46.6694 126.756 45.7472 126.627 44.824C126.498 43.9008 126.375 42.9713 126.246 42.0455C126.118 41.1197 125.986 40.1949 125.858 39.2686C125.733 38.3568 125.552 37.4492 125.497 36.5182C125.836 36.4829 125.861 36.7194 125.944 36.8675C126.721 38.2988 127.493 39.7326 128.259 41.1691C129.463 43.4317 130.662 45.6977 131.856 47.9669C132.012 48.2647 132.18 48.4472 132.548 48.4903C133.27 48.5751 133.983 48.7279 134.7 48.8506C135.157 48.928 135.613 49.0013 136.149 49.0897V49.0881ZM78.1285 46.4646C78.7532 38.676 79.3737 30.9524 79.9979 23.1821C78.2764 23.1202 76.6236 23.0459 74.9229 23.0901C74.6517 26.4253 74.3847 29.7147 74.1119 33.0707L70.1036 32.843C70.304 29.5234 70.5008 26.2636 70.7007 22.9492L66.2072 22.7413C65.7293 24.5768 65.2644 26.3733 64.8438 28.1766C64.91 28.2093 64.9785 28.237 65.0489 28.2592C65.6465 28.3705 65.6486 28.3699 65.5965 28.9688C65.3755 31.5052 65.1537 34.0412 64.9313 36.577C64.6068 40.2688 64.2825 43.9606 63.9583 47.6524C63.951 47.734 63.9583 47.8172 63.9583 47.9825L69.2306 47.3202C69.2634 46.9563 69.3009 46.6501 69.318 46.3408C69.4742 43.6086 69.6283 40.8764 69.7803 38.1442C69.8079 37.6468 69.8433 37.6062 70.3665 37.5553C71.0567 37.4887 71.7475 37.4265 72.4388 37.3687C72.8646 37.3328 73.291 37.3078 73.785 37.273C73.5393 40.5016 73.2972 43.6825 73.0505 46.9303L78.1285 46.4646ZM58.3076 41.3183C58.2353 41.8438 58.1562 42.306 58.114 42.7665C58.0885 43.0493 57.974 43.1933 57.6975 43.2713C56.7793 43.5276 55.8688 43.8119 54.9531 44.0765C54.5148 44.2033 54.4378 44.1285 54.4846 43.6559C54.5888 42.6049 54.6929 41.5539 54.797 40.5032C55.1409 37.0925 55.4857 33.682 55.8313 30.272C55.8834 29.7381 55.9573 29.2058 56.0026 28.6714C56.0224 28.4323 56.1145 28.2878 56.3519 28.2249C56.6871 28.1355 57.0187 28.0336 57.3493 27.9297C57.5809 27.8564 57.7189 27.9239 57.7657 28.1672C57.8032 28.3717 57.8426 28.5756 57.8839 28.779C57.9833 29.2656 58.0848 29.7516 58.1806 30.2143C59.2665 30.3858 63.1817 30.4373 63.6632 30.2798C63.3602 27.7534 63.0566 25.2217 62.7522 22.6846C62.583 22.6623 62.4815 22.642 62.379 22.6368C60.5606 22.5422 58.7413 22.4554 56.9235 22.3504C56.6292 22.3302 56.3383 22.4232 56.1104 22.6103C54.3661 23.9303 52.619 25.2435 50.8688 26.55C50.6019 26.7395 50.4082 27.0148 50.3202 27.3298C48.9417 31.959 47.5555 36.5854 46.1614 41.2091C46.0625 41.5377 46.0911 41.7841 46.3035 42.0663C47.3774 43.4927 48.4284 44.9358 49.4888 46.372C50.3623 47.5555 51.2377 48.7393 52.1151 49.9235L61.962 48.26C62.2972 45.926 62.6335 43.5863 62.9802 41.1727L58.3076 41.3183ZM40.4462 45.493C40.3618 45.8252 40.2983 46.0752 40.2343 46.3247C40.1885 46.503 40.1099 46.6392 39.8996 46.6689C38.9105 46.8087 37.9178 46.9558 36.8543 47.1107C36.8798 46.8986 36.8871 46.7156 36.9245 46.5389C38.6893 38.3166 40.4552 30.0949 42.2223 21.8737C42.2499 21.7458 42.2535 21.6138 42.2744 21.4469C40.1218 21.2151 38.0032 21.1173 35.9058 20.9848C35.5617 22.0587 34.7746 25.9346 34.8158 26.3281C34.9136 26.3468 35.0151 26.366 35.1161 26.3863C35.5284 26.4689 35.5414 26.4861 35.5003 26.8962C35.493 26.9649 35.4847 27.034 35.4732 27.1042C35.1557 28.9461 34.8383 30.7878 34.5211 32.6294C33.7365 37.2347 32.9534 41.8402 32.1718 46.4459C32.1114 46.803 32.1349 47.2339 31.9381 47.4917C31.7299 47.7641 31.3134 47.8905 30.9704 48.0443C30.6726 48.1784 30.5305 48.3635 30.4779 48.6993C30.1609 50.7162 29.8158 52.7285 29.4836 54.7433C29.4316 55.0589 29.3967 55.378 29.3452 55.7637C35.0651 53.9906 40.7423 52.3776 46.5456 51.1487C46.6674 49.1318 46.8105 47.1575 46.8829 45.1307L40.4462 45.493ZM119.604 46.8009C119.604 46.3741 119.627 45.9972 119.6 45.624C119.486 44.037 119.353 42.4531 119.236 40.8645C119.14 39.6044 119.059 38.3433 118.963 37.0833C118.85 35.6002 118.728 34.1177 118.613 32.6341C118.552 31.8445 118.496 31.0548 118.434 30.2075L112.004 29.7917C111.872 30.9945 111.749 32.1231 111.625 33.2605C111.781 33.3124 111.891 33.3644 112.008 33.3811C112.294 33.4169 112.437 33.55 112.44 33.8536C112.44 34.0943 112.498 34.3334 112.524 34.5741C112.675 35.9844 112.821 37.3952 112.973 38.8049C113.176 40.6794 113.382 42.5536 113.59 44.4274C113.66 45.0579 113.735 45.6885 113.808 46.3237L119.604 46.8009ZM169.797 65.3587L165.951 62.5376C166.116 62.3848 166.243 62.2382 166.399 62.1347C166.503 62.0656 166.668 61.9991 166.773 62.0308C167.228 62.1737 167.671 62.3536 168.162 62.5365L167.729 63.0657L170.324 64.9543C171.056 64.3513 171.756 63.7857 172.441 63.204C172.734 62.9566 172.733 62.6592 172.433 62.4113C172.242 62.2627 172.029 62.1461 171.801 62.0661C169.838 61.3297 167.873 60.5995 165.906 59.8756C165.729 59.8049 165.546 59.7502 165.359 59.7123C164.734 59.6037 164.162 59.6744 163.693 60.1802C163.268 60.6366 162.808 61.0582 162.358 61.4922C162.113 61.7298 161.862 61.9601 161.578 62.2293L165.489 64.9932C165.173 65.1913 165.028 65.5432 164.689 65.4569C164.245 65.3441 163.822 65.1523 163.342 64.9766L163.749 64.475L161.135 62.6805C160.488 63.3085 159.885 63.8824 159.299 64.4687C159.002 64.764 159.023 65.0504 159.361 65.2953C159.526 65.4143 159.725 65.4897 159.92 65.5619C161.72 66.2374 163.522 66.9092 165.325 67.5773C165.47 67.6343 165.618 67.6822 165.769 67.7208C166.376 67.8658 166.928 67.7847 167.421 67.3611C168.065 66.808 168.729 66.2777 169.383 65.7356C169.503 65.6368 169.612 65.5292 169.797 65.3597V65.3587ZM153.64 59.1816C154.208 58.5251 154.769 57.8914 155.312 57.2421C155.509 57.0061 155.481 56.768 155.214 56.5663C155.006 56.4136 154.771 56.3007 154.522 56.2331C152.436 55.6558 150.346 55.0895 148.253 54.5343C147.941 54.4522 147.602 54.4507 147.277 54.4605C146.896 54.4725 146.593 54.6456 146.367 54.9767C145.918 55.6348 145.443 56.2763 144.981 56.9245C144.912 57.0207 144.857 57.1262 144.773 57.2645L149.026 59.6203C148.794 59.8802 148.706 60.2192 148.363 60.1563C147.913 60.0736 147.475 59.9239 146.993 59.7924C147.11 59.5845 147.185 59.4535 147.286 59.2726L144.408 57.7198C143.913 58.4159 143.439 59.0714 142.979 59.7383C142.841 59.9385 142.91 60.1568 143.08 60.2997C143.239 60.4318 143.42 60.5335 143.616 60.5997C143.96 60.714 144.318 60.7842 144.669 60.8804C146.29 61.3226 147.91 61.7667 149.53 62.2127C150.334 62.4326 151.02 62.3265 151.561 61.6029C151.985 61.0353 152.482 60.5227 152.944 59.9832C153.031 59.8823 153.1 59.7674 153.212 59.613L148.981 57.1771C149.102 57.0098 149.189 56.8574 149.307 56.741C149.386 56.6646 149.527 56.5804 149.619 56.6012C150.1 56.7093 150.574 56.8502 151.077 56.9864C150.959 57.213 150.877 57.3721 150.786 57.5467L153.64 59.1816ZM140.704 56.9541L140.73 56.8398C141.109 56.8195 141.487 56.7847 141.865 56.7878C142.102 56.7878 142.247 56.6932 142.373 56.5024C142.849 55.7799 143.342 55.0672 143.82 54.3456C144.063 53.9787 144.009 53.7073 143.612 53.4942C143.365 53.3702 143.102 53.281 142.831 53.2291C141.088 52.8479 139.344 52.4751 137.598 52.1109C136.838 51.9524 136.074 51.8188 135.279 51.6675C134.145 53.7749 133.024 55.8578 131.899 57.9491C131.987 57.9943 132.029 58.0286 132.075 58.0385C133.042 58.2376 134.01 58.4315 134.976 58.6321C135.189 58.6763 135.293 58.5687 135.387 58.4034C135.583 58.0572 135.779 57.7094 135.999 57.3783C136.076 57.2619 136.215 57.1304 136.341 57.1122C136.841 57.0399 137.349 57.004 137.741 57.5052C137.458 57.986 137.168 58.4819 136.852 59.0163L140.173 59.7581L141.626 57.6008L140.704 56.9541ZM39.772 55.4612C39.8159 55.5452 39.8644 55.6268 39.9173 55.7055C41.2915 57.5076 42.6655 59.3119 44.0391 61.1185C44.2004 61.3316 44.3556 61.3711 44.6117 61.3025C46.2187 60.8778 47.8298 60.4708 49.4409 60.0627C50.1119 59.8932 50.7944 59.7581 51.4597 59.5735C52.1395 59.3854 52.2712 59.0199 51.9084 58.4336C51.0073 56.9781 50.0932 55.5267 49.2082 54.0597C48.9542 53.6387 48.6049 53.4531 48.1463 53.436C47.9047 53.4227 47.6625 53.4427 47.4263 53.4952C45.0061 54.0941 42.5881 54.6997 40.1723 55.312C40.0458 55.3458 39.923 55.4045 39.772 55.4612ZM57.3831 53.0326C57.5252 53.2675 57.647 53.4682 57.785 53.6969L60.9974 52.3542C60.7704 51.852 60.5669 51.4008 60.3628 50.9507C60.281 50.9442 60.1989 50.9442 60.1171 50.9507C57.549 51.432 54.9797 51.9156 52.4092 52.4015C52.2733 52.4298 52.1424 52.4782 52.0208 52.545C51.581 52.7789 51.5003 53.0388 51.7543 53.4744C52.6361 55.0037 53.5273 56.5279 54.406 58.0593C54.5648 58.3353 54.7772 58.5271 55.0864 58.5646C55.3956 58.602 55.7111 58.6337 56.0068 58.5807C57.5919 58.2974 59.1723 57.987 60.7543 57.6866C61.2644 57.5894 61.7824 57.5218 62.2837 57.3908C62.8777 57.2348 63.026 56.8928 62.7819 56.3423C62.3189 55.2985 61.8523 54.2564 61.3821 53.2161C61.3274 53.0955 61.2488 52.9863 61.1681 52.8491C59.7668 53.424 58.3904 53.9651 57.0193 54.5946L57.7902 56.0715L58.7449 55.6993L59.0609 56.3751C58.6361 56.4624 58.2853 56.5378 57.9328 56.6069C57.4763 56.6963 57.4446 56.6854 57.2327 56.2877C56.786 55.4473 56.3437 54.6045 55.9058 53.7593C55.8475 53.6465 55.8214 53.5165 55.7631 53.3434L57.3831 53.0326ZM97.8094 48.0485V48.0007C96.735 48.0007 95.6605 47.9913 94.5861 48.0074C94.2934 48.013 94.003 48.061 93.724 48.1498C93.4029 48.2538 93.2311 48.4799 93.2399 48.8563C93.2774 50.4995 93.2982 52.1437 93.3128 53.7874C93.3159 54.131 93.4726 54.354 93.7724 54.4657C93.9814 54.5468 94.2023 54.5926 94.4263 54.6014C96.488 54.6361 98.55 54.6638 100.612 54.6846C100.802 54.688 100.992 54.6672 101.176 54.6227C101.733 54.4824 101.877 54.2916 101.931 53.726C102.084 52.1593 102.24 50.593 102.4 49.0273C102.446 48.5766 102.364 48.3734 101.944 48.2221C101.651 48.1181 101.343 48.0619 101.032 48.0558C99.9604 48.0344 98.8859 48.0485 97.8094 48.0485ZM18.6763 66.5496C18.6379 66.4942 18.5951 66.4421 18.5482 66.3937C17.7111 65.7205 16.8824 65.0385 16.0287 64.3851C15.8486 64.2473 15.5925 64.1771 15.3608 64.1423C14.9463 64.0804 14.5228 64.1426 14.1437 64.3211C11.8689 65.3438 9.59404 66.3661 7.31918 67.3881C7.22184 67.4318 7.14167 67.5144 7.00945 67.6116L14.1682 72.4813L17.2395 71.0549L15.5029 69.7554L18.6763 66.5496ZM28.8762 58.6956L34.3124 64.3715L41.8902 62.023L40.5414 60.3595C40.0771 60.6376 39.7033 60.9428 39.2749 61.1013C38.4149 61.4189 37.5263 61.6612 36.6455 61.9226C36.5414 61.9533 36.378 61.9523 36.3118 61.8909C36.0802 61.6768 35.8517 61.4496 35.6674 61.1268C36.3119 60.9287 36.8808 60.7109 37.4696 60.5851C38.0583 60.4593 38.6778 60.4209 39.353 60.3351L37.7179 58.3681C36.745 59.2679 35.5269 59.3947 34.4102 59.7862C34.1713 59.4696 33.8444 59.2798 33.7335 58.8905C34.5237 58.6483 35.2952 58.4393 36.0443 58.1747C36.821 57.9013 37.6299 57.9267 38.5659 57.9049L37.1323 56.1339L28.8762 58.6956ZM131.731 53.017C131.887 52.7113 132.049 52.4254 132.179 52.126C132.31 51.8266 132.553 51.5542 132.568 51.1991C130.865 50.7989 124.628 49.8772 124.077 49.9417C123.664 50.7531 121.729 55.941 121.695 56.3402L129.48 57.5415C129.788 56.9178 130.07 56.3517 130.412 55.6624C128.718 56.0512 127.226 55.5189 125.631 55.3505C125.796 54.972 125.923 54.6799 126.055 54.3779C127.262 54.5889 128.457 54.605 129.52 55.3234L130.613 53.0726C129.223 53.3938 128.003 53.0513 126.706 52.861L127.13 51.9019C127.629 51.9758 128.09 52.0387 128.55 52.114C129.591 52.284 130.657 52.3656 131.564 52.9936C131.589 53.0081 131.629 53.0019 131.731 53.017ZM71.5835 49.334C70.1218 49.5191 68.6986 49.6948 67.2769 49.8798C65.8553 50.0649 64.444 50.2385 62.9927 50.514L65.5955 56.8502L73.483 55.8043C73.2956 55.1706 73.1187 54.5713 72.9255 53.9189C72.1915 54.2926 71.5023 54.5427 70.7439 54.5993C69.9854 54.656 69.2389 54.787 68.4581 54.8889L68.1223 53.9355C68.772 53.8461 69.3644 53.7245 69.9615 53.6938C70.5742 53.6626 71.1921 53.7203 71.8563 53.7406C71.633 53.0222 71.4201 52.337 71.1879 51.5869C70.0281 52.2481 68.7907 52.2378 67.5617 52.414L67.229 51.4497C68.0869 51.3421 68.8802 51.2776 69.6595 51.1347C70.4726 50.986 71.267 51.1155 72.1416 51.2636L71.5835 49.334ZM114.125 55.4908C114.238 55.075 114.364 54.6851 114.448 54.2854C114.519 53.9506 114.686 53.8082 115.033 53.7551C116.658 53.5056 118.278 53.2207 119.902 52.9645C120.162 52.9239 120.292 52.8231 120.371 52.573C120.602 51.8484 120.864 51.1336 121.107 50.4132C121.259 49.964 121.167 49.7447 120.735 49.544C120.578 49.4711 120.412 49.4205 120.241 49.3938C119.882 49.3418 119.519 49.308 119.157 49.2716C117.52 49.1084 115.883 48.9421 114.246 48.7871C113.577 48.7237 112.906 48.6832 112.253 48.6374C111.99 49.2508 110.776 54.8114 110.82 55.2065L114.125 55.4908ZM17.7533 62.8776C17.9235 62.9815 18.036 63.0335 18.1276 63.1104C20.0273 64.7004 21.9241 66.2945 23.8179 67.8928C24.0532 68.0925 24.2426 68.0966 24.5149 67.9926C26.846 67.1089 29.1822 66.2362 31.5164 65.3602C31.6596 65.3083 31.8001 65.2454 31.9329 65.1923L29.1141 62.3629L26.4347 64.1943L27.4352 65.0515C27.0365 65.2074 26.6997 65.2999 26.3941 65.4585C26.023 65.6529 25.7747 65.551 25.4826 65.2833C24.1812 64.0877 22.8522 62.9233 21.5461 61.7334C21.3223 61.5302 21.1349 61.4875 20.8548 61.6024C19.9907 61.9585 19.1151 62.2876 18.2453 62.6312C18.1208 62.6769 18.0074 62.7486 17.7533 62.8765V62.8776ZM171.228 69.903C171.293 69.9794 171.318 70.034 171.359 70.0527C172.26 70.4566 173.165 70.8522 174.066 71.2613C174.235 71.3377 174.359 71.3065 174.496 71.2093C174.791 70.9962 175.091 70.7898 175.388 70.5803C176.776 69.601 178.166 68.6258 179.549 67.6392C179.778 67.4759 179.965 67.4073 180.252 67.542C180.793 67.7962 181.302 68.0732 181.662 68.5696C181.729 68.6622 181.833 68.7256 181.928 68.8145C182.293 68.5691 182.643 68.343 182.983 68.1039C183.323 67.8648 183.711 67.6693 184.053 67.3189C183.497 67.059 183.015 66.8282 182.525 66.6125C180.381 65.669 178.236 64.7417 176.102 63.7852C175.747 63.6261 175.507 63.6599 175.225 63.9136C174.852 64.2494 174.439 64.5374 174.047 64.8539C173.946 64.935 173.86 65.0354 173.716 65.1788C174.252 65.2563 174.715 65.3062 175.17 65.393C175.626 65.4798 176.048 65.6643 176.5 65.9347L171.228 69.903ZM90.5575 48.0183L81.2738 48.4389C81.3364 49.1037 81.4493 49.7628 81.6116 50.4106C82.4747 50.0119 83.3019 49.7992 84.2243 49.8777C84.4502 51.5485 84.6741 53.2046 84.901 54.8847L88.3295 54.7288C88.1894 53.0232 88.0546 51.3785 87.9198 49.7384C88.8636 49.4874 89.7141 49.7587 90.5575 49.9692V48.0183ZM118.424 22.8806L111.556 23.1057C111.485 24.7327 111.368 26.2912 111.362 27.9026L118.424 28.0768V22.8806ZM85.2561 62.4108L84.2332 62.4565V61.9185L87.4471 60.7957C87.4101 60.0492 87.3846 59.3245 87.3341 58.6015C87.3149 58.3275 87.1056 58.1804 86.8563 58.1149C86.7212 58.0838 86.5822 58.0731 86.444 58.0832C85.4393 58.1328 84.4348 58.1863 83.4305 58.2438C83.0661 58.2646 82.7017 58.2885 82.342 58.3322C81.962 58.3785 81.6788 58.5921 81.6834 58.8863C81.6939 59.4997 81.7079 60.1173 81.8735 60.765L83.9771 60.0128C84.0197 59.822 84.052 59.6765 84.09 59.5054H85.0749C85.089 59.6822 85.102 59.8444 85.116 60.017L81.8589 61.2058C81.9521 62.1467 81.963 63.0382 82.1223 63.9177L87.5455 63.5606C87.5913 62.7653 87.5163 62.0214 87.4372 61.2245C86.8167 61.4324 86.2633 61.6321 85.7006 61.7963C85.4049 61.8852 85.1941 62.0058 85.2576 62.4108H85.2561ZM94.7714 57.9153C94.5512 57.8976 94.4315 57.8784 94.3123 57.8794C92.9609 57.8905 91.6097 57.9037 90.2587 57.9189C90.0855 57.9171 89.9126 57.9285 89.7412 57.9532C89.2587 58.0349 89.0806 58.2397 89.0963 58.7267C89.1415 60.1266 89.1967 61.5265 89.2524 62.9264C89.2597 63.1094 89.293 63.2903 89.3112 63.4462C89.9359 63.4462 90.5059 63.4462 91.0749 63.4462C92.0275 63.4405 92.9802 63.4395 93.9328 63.4182C94.5611 63.4041 94.7698 63.1801 94.7714 62.5662C94.7714 61.5109 94.7714 60.4557 94.7714 59.4004V57.9153ZM101.993 63.5481V61.2505C101.456 61.3737 100.923 61.5104 100.384 61.6144C100.045 61.6778 99.7532 61.7573 99.735 62.1389H98.7802C98.7282 61.6513 98.7245 61.6445 99.1316 61.5426C99.9546 61.3347 100.78 61.1408 101.604 60.9376C101.767 60.897 101.927 60.8435 102.105 60.791C102.135 60.0632 102.166 59.3755 102.189 58.6852C102.199 58.3837 102.025 58.1918 101.755 58.1092C101.555 58.0533 101.35 58.0222 101.143 58.0167C100.346 57.982 99.5495 57.9526 98.7527 57.9283C98.2503 57.9137 97.7469 57.9007 97.243 57.9111C96.8334 57.92 96.5361 58.1263 96.5205 58.4466C96.4919 59.0277 96.5122 59.6115 96.5122 60.2659C97.1316 60.11 97.6782 59.9541 98.2342 59.847C98.583 59.7784 98.8531 59.6707 98.8588 59.2372L99.8615 59.285C99.8479 59.4987 99.8375 59.663 99.8271 59.8288C98.7037 60.162 97.5778 60.3486 96.5158 60.725V63.3932L101.993 63.5481ZM153.047 63.2664C154.036 63.585 154.932 63.8527 155.811 64.1678C156.178 64.2993 156.404 64.2286 156.669 63.9515C157.853 62.7102 159.06 61.4917 160.261 60.2639C160.803 59.7077 161.343 59.1488 161.953 58.5204L158.408 57.3856L153.047 63.2664ZM109.097 60.9225C109.149 60.347 109.194 59.7789 109.243 59.2138C109.27 58.9108 109.117 58.7143 108.854 58.6072C108.709 58.5522 108.556 58.5189 108.402 58.5084C107.279 58.4107 106.157 58.3135 105.034 58.2308C104.694 58.2059 104.352 58.2272 103.978 58.2272C103.947 58.7444 103.919 59.2331 103.892 59.6827C104.438 59.6354 104.916 59.5491 105.39 59.5652C105.88 59.5824 106.391 59.52 106.899 59.7414C106.867 59.9873 106.838 60.216 106.805 60.464C106.372 60.4359 105.989 60.4401 105.617 60.3782C105.253 60.3179 104.904 60.1901 104.502 60.0788C104.465 60.6917 104.43 61.2552 104.398 61.8296C104.827 61.774 105.198 61.6939 105.572 61.6872C105.946 61.6804 106.32 61.7459 106.726 61.7828C106.703 62.0718 106.684 62.3026 106.661 62.5927C105.667 62.4258 104.692 62.6156 103.768 62.0266C103.733 62.6135 103.704 63.1052 103.674 63.6126C103.836 63.6375 103.934 63.6599 104.038 63.6672C105.265 63.7611 106.492 63.8533 107.719 63.9437C107.91 63.963 108.101 63.9662 108.292 63.9531C108.639 63.9193 108.848 63.7358 108.885 63.4047C108.947 62.8386 108.98 62.2699 109.026 61.6986L108.241 61.2401L109.097 60.9225Z" fill="black"/>
<path d="M85.127 19.679C85.127 19.85 85.1328 20.0215 85.127 20.1926C85.1088 20.6433 85.0198 20.728 84.5575 20.7238C84.2103 20.7207 83.8636 20.7077 83.5164 20.6973C82.1977 20.6585 80.8789 20.6188 79.5601 20.5783C78.6565 20.5507 78.328 20.2742 78.1447 19.3915C78.1395 19.366 78.1041 19.3468 78.0661 19.3068C78.0372 19.3439 78.0142 19.3853 77.9979 19.4295C77.873 20.1702 77.5133 20.5013 76.7731 20.4857C75.2808 20.4546 73.7894 20.4102 72.2988 20.3527C71.5149 20.3225 71.036 19.837 71.0318 19.0614C71.0209 17.0341 71.0276 15.0068 71.0318 12.9795C71.0318 12.8755 71.025 12.7606 71.0667 12.6722C71.3618 12.0485 71.6742 11.4247 72.1666 10.9319C72.4227 10.672 72.7814 10.62 73.1364 10.633C74.1416 10.6725 75.1468 10.7193 76.1515 10.765C76.7059 10.79 77.2603 10.817 77.8173 10.8451C77.8694 10.8431 77.9216 10.8449 77.9735 10.8503C78.9625 11.0462 79.9667 10.8731 80.9605 10.9542C81.0469 10.9615 81.1338 10.962 81.2207 10.9693C81.5851 11.002 81.9631 11.0015 82.1578 11.4564C82.3472 11.1211 82.5929 11.0192 82.8865 11.0374C83.7496 11.0894 84.6127 11.1533 85.4758 11.2058C85.5919 11.2131 85.7106 11.1731 85.8277 11.1736C86.6762 11.1736 87.5258 11.1622 88.3733 11.2001C88.5851 11.2095 88.7897 11.3872 89.0463 11.512C89.2415 11.223 89.6091 11.211 89.9964 11.2245C90.6033 11.2458 91.2114 11.2334 91.8183 11.2536C92.4253 11.2739 92.5846 11.4434 92.5872 12.0453C92.5924 13.4317 92.5872 14.8181 92.5872 16.2039V16.7206H92.6351C92.6351 15.8612 92.6351 15.0019 92.6351 14.1428C92.6351 13.4327 92.6273 12.7221 92.6393 12.0115C92.6481 11.512 92.8324 11.2931 93.3202 11.2765C94.0651 11.251 94.8131 11.2521 95.5586 11.2885C95.7949 11.2999 96.0239 11.4585 96.3394 11.5822C96.7231 11.2952 97.2717 11.3046 97.8287 11.3067C99.2165 11.3108 100.605 11.2905 101.993 11.2879C102.234 11.2879 102.475 11.3254 102.716 11.3477C102.8 11.3555 102.89 11.3997 102.966 11.3774C103.804 11.1533 104.657 11.3056 105.503 11.2651C105.826 11.2495 106.128 11.3171 106.343 11.6617C106.541 11.3082 106.843 11.2339 107.187 11.2339C107.83 11.2339 108.472 11.2245 109.113 11.2095C109.437 11.2017 109.738 11.2308 109.929 11.5655C110.414 11.1954 110.942 11.1585 111.486 11.1497C112.856 11.1221 114.226 11.0681 115.599 11.0353C115.891 11.0286 116.184 11.0686 116.476 11.0873C116.543 11.096 116.61 11.0993 116.678 11.0972C117.228 11.0452 117.777 10.9755 118.327 10.9454C119.696 10.8702 121.065 10.8062 122.434 10.7536C122.742 10.7416 123.054 10.7998 123.363 10.7988C123.548 10.7988 123.732 10.725 123.918 10.7182C124.817 10.687 125.717 10.6725 126.615 10.6397C126.783 10.6335 126.947 10.5534 127.116 10.5415C127.807 10.4895 128.499 10.4323 129.192 10.4256C129.406 10.4256 129.622 10.5768 129.898 10.6824C130.451 10.1698 131.237 10.3112 131.965 10.2343C132.93 10.1303 133.902 10.0986 134.869 10.0149C135.504 9.95979 136.067 10.0596 136.546 10.529C136.829 10.805 137.171 11.0228 137.494 11.2568C137.817 11.4907 137.954 11.8078 137.954 12.1924C137.954 12.9899 137.966 13.7868 137.947 14.5836C137.942 14.7697 137.832 14.9532 137.772 15.1305C137.825 15.3145 137.942 15.5287 137.947 15.7455C137.967 16.6978 137.963 17.6511 137.952 18.6045C137.945 19.2283 137.594 19.641 136.98 19.7767C136.844 19.8052 136.706 19.8226 136.568 19.8287C135.182 19.8994 133.796 19.9638 132.41 20.0366C131.844 20.0668 131.35 19.9139 130.934 19.5215C130.568 19.177 130.201 18.8346 129.831 18.4943C129.721 18.3952 129.633 18.2735 129.574 18.1374C129.514 18.0013 129.485 17.8541 129.488 17.7057C129.5 16.8075 129.54 15.9097 129.553 15.0115C129.556 14.7973 129.485 14.5821 129.447 14.3586C128.894 14.3658 128.473 14.9891 127.839 14.488V15.1575C127.839 16.6304 127.839 18.1032 127.839 19.5761C127.839 20.1998 127.783 20.2518 127.156 20.2794C126.497 20.3106 125.838 20.3431 125.181 20.3771C124.944 20.3896 124.769 20.3407 124.606 20.1229C124.39 19.8299 124.13 19.5718 123.835 19.3577C123.433 19.0729 123.314 18.7204 123.328 18.2474C123.355 17.2431 123.336 16.2377 123.337 15.2324C123.337 15.1284 123.337 15.0245 123.337 14.9205C123.33 14.3456 123.311 14.3289 122.634 14.3658C122.624 14.5415 122.605 14.7245 122.605 14.9075C122.602 16.4846 122.601 18.0615 122.602 19.6379C122.606 19.794 122.602 19.9502 122.589 20.1058C122.565 20.322 122.437 20.4582 122.215 20.4696C121.418 20.5029 120.62 20.5383 119.821 20.5476C119.688 20.5476 119.519 20.4566 119.425 20.3548C119.069 19.978 118.731 19.5837 118.415 19.1732C118.311 19.038 118.285 18.8207 118.283 18.6398C118.271 17.5659 118.277 16.4914 118.277 15.4169V14.9345C118.069 14.9454 117.893 14.9922 117.74 14.9517C117.609 14.9169 117.505 14.7817 117.333 14.6471V15.196C117.333 16.7901 117.333 18.3843 117.333 19.9784C117.333 20.5346 117.264 20.6183 116.719 20.6427C116.026 20.6739 115.332 20.6755 114.637 20.6978C114.384 20.7056 114.221 20.6193 114.098 20.3828C113.999 20.19 113.832 20.0319 113.635 19.7814C113.609 19.9524 113.59 20.0267 113.587 20.1016C113.561 20.6604 113.502 20.7358 112.959 20.7561C112.318 20.78 111.675 20.7841 111.033 20.7888C110.473 20.7924 110.473 20.7888 110.292 20.178C110.236 20.6906 109.974 20.8288 109.546 20.8112C108.869 20.7841 108.193 20.8044 107.516 20.8138C107.24 20.8179 107.07 20.7363 106.982 20.4416C106.901 20.1692 106.736 19.9217 106.607 19.6618L106.489 19.6774C106.485 19.9061 106.489 20.1354 106.475 20.3631C106.454 20.6978 106.371 20.8112 106.039 20.8236C105.258 20.8538 104.477 20.8543 103.697 20.8668C103.384 20.872 103.28 20.6391 103.2 20.347C102.974 20.8611 102.965 20.8704 102.45 20.8761C101.79 20.8834 101.131 20.8902 100.472 20.8871C100.023 20.8871 99.999 20.8481 99.8704 20.4078C99.774 20.0512 99.6295 19.7093 99.4409 19.3915C99.4138 19.4955 99.3691 19.5994 99.3634 19.7034C99.3509 19.9451 99.367 20.1889 99.3535 20.4312C99.3326 20.8049 99.2561 20.8933 98.8808 20.899C98.1348 20.9078 97.3883 20.899 96.6424 20.8845C96.2936 20.8767 96.2723 20.8429 96.0672 20.4062C95.9833 20.5408 95.9276 20.7181 95.8069 20.7976C95.6861 20.8772 95.5112 20.8777 95.3597 20.8761C93.2952 20.8564 91.2303 20.8328 89.165 20.8054C88.367 20.7961 87.569 20.7909 86.7704 20.7831C85.7944 20.7691 85.5039 20.5622 85.127 19.679ZM92.0458 11.6737H89.5841V17.345H88.4566C88.4409 17.1074 88.4159 16.9052 88.4154 16.7025C88.4123 15.195 88.4154 13.6875 88.4128 12.18C88.4128 11.998 88.3962 11.8161 88.3868 11.6258C87.9433 11.6024 87.5633 11.5697 87.1827 11.5661C86.7923 11.5624 86.3946 11.4746 86.0063 11.6082C85.9914 11.6821 85.9813 11.757 85.9761 11.8322C85.9761 13.9635 85.9688 16.0948 85.9761 18.2261C85.9761 18.827 86.2983 19.1202 86.9381 19.129C89.6606 19.1675 92.3833 19.2021 95.1062 19.233C95.2743 19.233 95.443 19.2163 95.6419 19.2059V11.7355H93.228C93.228 11.9377 93.228 12.1223 93.228 12.3073C93.228 13.8145 93.2261 15.322 93.2223 16.8298C93.2223 17.0284 93.1937 17.227 93.1786 17.424H92.0484L92.0458 11.6737ZM102.48 11.7152H101.936C100.462 11.7152 98.9873 11.7152 97.5117 11.7152C96.7007 11.7152 96.4539 11.9596 96.4524 12.7643C96.4485 14.7212 96.4472 16.6792 96.4482 18.6383C96.4482 18.8249 96.4643 19.011 96.4742 19.2205H98.8954V17.817L100.072 17.2311V19.2065H102.478L102.48 11.7152ZM78.3077 11.3134C77.9037 11.2833 77.5591 11.249 77.2145 11.2328C75.9131 11.1741 74.6159 11.1289 73.3171 11.0634C72.5909 11.028 72.2759 11.2963 72.2723 12.011C72.266 12.9467 72.2723 13.8824 72.2723 14.8181C72.2723 15.7881 72.265 16.7581 72.2723 17.7291C72.2785 18.3747 72.593 18.6965 73.2202 18.7168C74.6084 18.7615 75.9952 18.8027 77.3806 18.8405C78.036 18.8582 78.328 18.5962 78.3322 17.9651C78.3405 16.6312 78.3358 15.2974 78.3322 13.9625C78.3322 13.8528 78.2915 13.7436 78.2614 13.5892L75.1828 14.5343V16.3178L75.8392 16.1993V17.0169L74.7736 16.9483V12.9363H75.846C75.8751 13.2139 75.9006 13.4587 75.9313 13.7483L78.3098 13.0143L78.3077 11.3134ZM130.01 15.1814C130.01 16.0262 130.003 16.7851 130.013 17.5441C130.021 18.1528 130.313 18.4423 130.916 18.4168C132.336 18.3572 133.756 18.2879 135.175 18.2089C135.776 18.1756 136.069 17.8487 136.074 17.2296C136.081 16.3812 136.074 15.5323 136.074 14.6824C136.074 14.5644 136.056 14.4464 136.044 14.2957L132.456 13.2186C132.472 12.9285 132.484 12.6941 132.499 12.4144H133.581C133.613 12.5989 133.644 12.7819 133.681 12.9997C134.454 13.2368 135.225 13.5003 136.075 13.6708C136.075 12.8298 136.081 12.0692 136.075 11.3093C136.069 10.672 135.777 10.4146 135.121 10.4547C134.274 10.5066 133.426 10.5586 132.579 10.6137C132.043 10.647 131.506 10.6756 130.971 10.7177C130.339 10.764 130.026 11.0883 130.015 11.7137C130.006 12.1987 130.015 12.6837 130.015 13.1692V14.5914L133.588 15.7044C133.692 16.4945 133.674 16.519 132.935 16.5294C132.803 16.5294 132.669 16.5127 132.519 16.5028C132.48 16.2949 132.446 16.1119 132.409 15.9128L130.01 15.1814ZM110.171 19.0973H112.589C112.589 18.6856 112.572 18.3238 112.597 17.9646C112.606 17.8305 112.679 17.6527 112.782 17.583C113.065 17.3985 113.379 17.2628 113.763 17.0663V19.0448C114.602 19.0479 115.384 19.0484 116.152 18.9959C116.269 18.0083 116.222 11.8286 116.09 11.4293C115.447 11.4553 114.792 11.487 114.136 11.5078C113.095 11.5425 112.055 11.5714 111.017 11.5946C110.657 11.604 110.366 11.7371 110.223 12.0755C110.159 12.2278 110.148 12.4113 110.148 12.5808C110.143 14.6067 110.143 16.6325 110.148 18.658C110.146 18.7922 110.161 18.9278 110.171 19.0957V19.0973ZM105.761 19.1732V16.6733L106.931 16.1109V19.1321H109.298C109.412 18.3056 109.371 12.0105 109.251 11.6404C108.876 11.6404 108.497 11.6373 108.117 11.6404C107.727 11.6445 107.336 11.656 106.909 11.6648V12.3047C106.909 12.8246 106.918 13.3444 106.902 13.8642C106.898 13.9858 106.845 14.1605 106.757 14.214C106.467 14.3892 106.15 14.5192 105.756 14.7084V11.7454H103.345C103.235 12.3947 103.259 18.8083 103.375 19.22C103.984 19.22 104.604 19.2226 105.225 19.22C105.377 19.2143 105.529 19.1909 105.761 19.1716V19.1732ZM79.1598 11.3238C79.1406 11.5146 79.1213 11.6154 79.1213 11.7163C79.1213 13.8117 79.1161 15.9071 79.1213 18.0025C79.1213 18.6159 79.4243 18.9195 80.0521 18.9382C81.6809 18.9902 83.3103 19.0318 84.9396 19.0749C85.0028 19.0709 85.0654 19.0607 85.1265 19.0443C85.2306 18.4205 85.2041 11.9502 85.0911 11.539L82.7351 11.4486V17.2088H81.6132C81.594 16.9712 81.5648 16.7695 81.5643 16.5678C81.5601 15.0442 81.5643 13.5201 81.5607 11.9934C81.5607 11.8099 81.544 11.6264 81.5336 11.4184L79.1598 11.3238ZM118.792 13.1541V16.0132C118.792 16.4971 118.786 16.9816 118.792 17.4661C118.8 17.9417 118.758 18.4215 118.829 18.9382L121.275 18.8343V15.9009C121.275 15.4164 121.269 14.9319 121.275 14.4454C121.283 13.9692 121.24 13.4889 121.303 13.0382C121.952 12.8734 122.485 13.0647 123.069 13.3704C123.086 12.5813 123.09 11.8883 123.069 11.1601L117.014 11.42C116.997 12.1535 116.972 12.8287 117.03 13.5939C117.603 13.2752 118.108 12.9899 118.792 13.1541ZM123.899 11.1268V18.7511C124.711 18.71 125.496 18.7682 126.272 18.5993V11.0031L123.899 11.1268ZM127.107 10.9521C127.107 11.4148 127.099 11.7932 127.107 12.1717C127.116 12.5386 127.064 12.9119 127.155 13.3381L129.209 12.457C129.221 11.8941 129.248 11.3696 129.193 10.8341L127.107 10.9521Z" fill="black"/>
<path d="M95.4149 67.8322C96.8392 67.9206 98.2572 68.0012 99.6742 68.101C100.314 68.1457 100.455 68.3245 100.363 68.9717C100.051 71.1679 99.544 73.3216 98.9521 75.4565C98.1104 78.4928 97.0698 81.4641 95.9912 84.4225C95.973 84.4708 95.9574 84.5207 95.9391 84.5691C95.8496 84.8155 95.6945 85.0062 95.4186 85.0067C95.1427 85.0073 94.986 84.816 94.898 84.5696C94.6221 83.8049 94.3436 83.0413 94.0729 82.2745C92.9495 79.0922 91.8965 75.8874 91.1614 72.5902C90.8944 71.3946 90.682 70.1818 90.4764 68.9717C90.367 68.3271 90.5211 68.1467 91.1614 68.1015C92.5773 68.0017 93.9954 67.9206 95.4149 67.8322ZM95.3629 82.9763C95.7101 82.9628 95.7101 82.7725 95.7549 82.6384C96.139 81.4901 96.5112 80.3377 96.8949 79.1889C97.9162 76.1292 98.7168 73.018 99.0776 69.805C99.1395 69.2555 99.1031 69.1843 98.5737 69.1541C97.6391 69.1008 96.7044 69.0533 95.7694 69.0117C95.5997 69.0134 95.4303 69.0246 95.2619 69.0455C95.2463 69.2404 95.2286 69.3761 95.2254 69.5133C95.1942 71.0728 95.1645 72.6307 95.1364 74.1871C95.1244 74.8452 95.1166 75.5033 95.1088 76.1624C95.1088 76.309 95.0755 76.4743 95.3332 76.5611C95.5477 76.0195 95.4581 75.4638 95.5097 74.9299C95.5648 74.3618 95.5987 73.7915 95.6414 73.2218C95.683 72.6697 95.7257 72.1177 95.7653 71.5656C95.8053 71.0006 95.8423 70.4355 95.8782 69.9022H98.0323C98.0323 70.6102 98.1224 71.2631 98.0146 71.8822C97.7476 73.4141 97.4326 74.9414 97.0589 76.4509C96.5638 78.4491 95.9938 80.4286 95.4597 82.4175C95.4149 82.587 95.3972 82.7653 95.3629 82.9763Z" fill="black"/>
<path d="M66.6042 14.4072C66.6042 15.5742 66.5808 16.6991 66.6146 17.8225C66.6313 18.3745 66.4892 18.8003 66.0259 19.1158C65.8511 19.2293 65.6933 19.367 65.5574 19.5249C65.2529 19.8961 64.8807 20.0109 64.4122 19.96C63.8442 19.8987 63.2706 19.8935 62.6995 19.8638C62.0832 19.8321 62.042 19.79 62.041 19.1434C62.041 17.4986 62.041 15.8537 62.041 14.2086V13.6181L61.586 13.5895C61.5627 13.6627 61.5465 13.7379 61.5376 13.8141C61.534 15.0783 61.5225 16.3425 61.5376 17.6088C61.5433 18.034 61.4757 18.3589 61.0743 18.6152C60.6849 18.8647 60.3585 19.2141 60.0118 19.5275C59.9357 19.5979 59.8448 19.6505 59.7458 19.6815C59.6467 19.7124 59.542 19.7209 59.4392 19.7063C58.7833 19.6481 58.1243 19.6216 57.47 19.5504C57.2123 19.5228 56.9634 19.4152 56.6792 19.3352C56.471 19.3684 56.2107 19.4516 55.9536 19.4438C55.2956 19.4246 54.6381 19.369 53.9817 19.3191C53.5402 19.2858 53.4304 19.1792 53.4293 18.7415C53.4241 16.1788 53.4294 13.616 53.4226 11.0533C53.4174 10.9322 53.4406 10.8115 53.4903 10.7008C53.54 10.5902 53.6148 10.4927 53.7089 10.416C54.0405 10.1379 54.3737 9.8603 54.7209 9.60247C54.9811 9.40806 55.2961 9.37687 55.6147 9.40546C56.2529 9.46316 56.8968 9.48707 57.5282 9.58844C58.4996 9.74438 59.4814 9.71163 60.4548 9.8078C60.4892 9.81144 60.5246 9.8078 60.559 9.81248C61.7151 10.0204 62.8911 9.95907 64.0551 10.076C65.219 10.193 66.4064 10.232 67.5824 10.311C67.7373 10.3216 67.8906 10.3493 68.0394 10.3936C68.2591 10.4576 68.4038 10.6099 68.4038 10.8449C68.4101 11.5544 68.4111 12.2645 68.3965 12.9761C68.3863 13.0957 68.3315 13.207 68.243 13.288C67.8387 13.6398 67.4246 13.9804 67.0009 14.31C66.914 14.375 66.7719 14.3682 66.6042 14.4072ZM63.598 12.3222V14.3007C63.598 14.9416 63.598 15.582 63.598 16.224C63.6006 16.8748 63.6058 17.5236 63.6105 18.203L66.0618 18.347V12.5073C66.7646 12.3108 67.2799 12.6856 67.8525 12.9429V10.7378C65.8312 10.6858 63.8473 10.4399 61.8588 10.3703C61.7547 11.0684 61.776 12.1637 61.9036 12.5478C62.4205 12.303 62.9431 12.0462 63.598 12.3222ZM57.7495 10.049C56.9421 9.96479 56.1654 9.85615 55.3856 9.8603C55.2685 10.6026 55.3039 17.2902 55.4288 17.6993L57.75 17.8552L57.7495 10.049ZM58.5824 17.9306L60.9421 18.0694C61.0509 17.3962 61.0254 10.6816 60.9155 10.2845L58.5819 10.115L58.5824 17.9306Z" fill="black"/>
<path d="M95.397 9.95059C93.7723 9.92096 92.183 9.7988 90.6078 9.53473C90.5391 9.52329 90.4719 9.50614 90.4048 9.48951C89.9363 9.3741 89.7947 9.17501 89.8884 8.70561C90.0447 7.90634 90.3024 7.13023 90.6552 6.39602C91.436 4.78716 92.5354 3.41066 93.7515 2.11837C94.1195 1.72694 94.5016 1.34851 94.891 0.978396C95.2804 0.60828 95.5479 0.607239 95.9248 0.967479C97.3824 2.36165 98.7358 3.84523 99.7525 5.60173C100.286 6.52182 100.69 7.49181 100.901 8.53874C101.042 9.23011 100.931 9.41309 100.237 9.53109C98.626 9.80504 97.0018 9.92512 95.397 9.95059ZM95.4199 1.9697C95.247 2.2816 95.4532 2.42403 95.5599 2.58102C96.3584 3.75478 97.1695 4.92023 97.9659 6.09556C98.3381 6.64398 98.4927 7.2844 98.7468 7.88636C98.6031 7.99293 98.5146 8.10833 98.4095 8.12704C97.7645 8.24036 97.1174 8.3802 96.4667 8.41399C96.03 8.43686 95.8269 8.14576 95.7811 7.68623C95.7117 6.98031 95.6401 6.27473 95.5661 5.5695C95.549 5.40471 95.5526 5.21913 95.3142 5.19886C95.1705 5.64851 95.2418 8.60476 95.4147 9.0882C95.7614 9.0882 96.1231 9.10951 96.4813 9.08404C97.3262 9.02374 98.1794 8.99723 99.0112 8.85376C99.9378 8.69365 100.016 8.82101 99.5927 7.73769C98.7379 5.5487 97.2871 3.77038 95.6718 2.1085C95.6161 2.05131 95.5287 2.02948 95.4199 1.9697Z" fill="black"/>
<path d="M154.904 22.5304C155.555 27.1641 156.213 31.7516 156.842 36.3432C157.467 40.9016 158.1 45.4589 158.693 50.0209L158.506 50.0656C158.461 49.9544 158.392 49.8468 158.373 49.7308C158.056 47.8714 157.748 46.0099 157.43 44.1505C156.757 40.2279 156.079 36.3056 155.397 32.3837C154.788 28.9061 154.162 25.431 153.546 21.955C153.463 21.4871 153.486 21.4726 153.967 21.4154C156.101 21.1607 158.235 20.9153 160.366 20.6357C160.879 20.5676 161.303 20.6357 161.73 20.9361C162.355 21.3728 163.017 21.7533 163.662 22.1608C163.804 22.2508 163.939 22.3526 164.163 22.5086C163.98 22.546 163.884 22.5975 163.813 22.5751C163.532 22.4883 163.256 22.3833 162.983 22.2752C162.37 22.0326 161.759 21.7872 161.149 21.5391C160.927 21.4442 160.681 21.4204 160.444 21.471C158.709 21.8094 156.971 22.1281 155.233 22.4535C155.15 22.4691 155.068 22.492 154.904 22.5304Z" fill="black"/>
<path d="M161.164 35.103C160.432 32.535 159.706 29.9869 158.978 27.4283C159.093 27.3732 159.152 27.3217 159.213 27.3191C159.939 27.289 160.665 27.2562 161.391 27.2505C161.495 27.2505 161.608 27.3789 161.704 27.4647C161.75 27.5073 161.763 27.5879 161.788 27.6518C162.7 29.9491 163.613 32.2462 164.525 34.5431C164.556 34.6216 164.573 34.7053 164.617 34.855C163.482 34.9954 162.363 34.9527 161.164 35.103Z" fill="black"/>
<path d="M165.095 35.4208C165.023 35.1728 164.981 35.0086 164.928 34.849C164.647 33.996 164.361 33.1445 164.084 32.2894C164.058 32.2062 164.09 32.1043 164.095 32.0107C164.179 32.043 164.311 32.0502 164.342 32.11C165.03 33.4096 165.707 34.7092 166.383 36.0139C166.396 36.0389 166.378 36.0799 166.369 36.1699C165.882 36.2468 165.396 36.1179 164.912 36.0659C164.427 36.0139 163.949 35.9583 163.469 35.8954C162.988 35.8325 162.488 35.8434 162.019 35.661C162.11 35.3922 162.29 35.4582 162.431 35.4561C163.124 35.4478 163.817 35.4499 164.509 35.4452C164.677 35.4447 164.846 35.4317 165.095 35.4208Z" fill="black"/>
<path d="M9.85767 52.0298C9.9295 51.7673 9.96178 51.6057 10.0175 51.4544C11.4469 47.7012 12.8566 43.9403 14.3168 40.1991C16.4631 34.6994 18.6484 29.2157 20.8066 23.7206C20.9384 23.3641 21.1794 23.0582 21.4953 22.8463C22.4091 22.2166 23.3147 21.5755 24.2121 20.9229C24.4444 20.7416 24.7386 20.6586 25.0315 20.6916C27.3267 20.9068 29.6234 21.1075 31.9191 21.3211C32.0232 21.3305 32.121 21.3903 32.2215 21.4251L32.2095 21.5337C32.0869 21.5551 31.9631 21.5699 31.8389 21.5779C29.741 21.6046 27.6433 21.6282 25.5458 21.6486C25.1823 21.6413 24.8269 21.7564 24.537 21.9756C23.7738 22.5474 22.9899 23.0896 22.2059 23.6317C21.9629 23.7977 21.7738 24.031 21.6619 24.3028C17.7598 33.3315 13.9736 42.4082 10.3033 51.5329C10.2377 51.6971 10.2247 51.9072 9.85767 52.0298Z" fill="black"/>
<path d="M26.0545 26.9735C25.5339 29.4276 25.0285 31.8168 24.5121 34.2547L21.5969 34.4351C21.649 34.235 21.6771 34.1066 21.7182 33.9824C22.4602 31.7544 23.2016 29.5261 23.9426 27.2974C23.9946 27.1414 24.0196 26.9787 24.218 26.9767C24.8015 26.9694 25.384 26.9741 26.0545 26.9735Z" fill="black"/>
<path d="M22.0181 34.745L24.7541 34.5604C24.8031 34.3962 24.8582 34.2532 24.8879 34.1056C25.1956 32.7218 25.4985 31.3375 25.8062 29.9543C25.8374 29.8139 25.8926 29.6788 25.9447 29.515C26.2107 29.6663 26.1289 29.855 26.117 30.0094C26.0404 30.957 25.954 31.9036 25.8697 32.8507C25.8083 33.539 25.7479 34.2278 25.6813 34.916C25.6636 35.1 25.6261 35.2825 25.5995 35.4535C25.079 35.5055 22.3601 35.0512 22.0181 34.8687V34.745Z" fill="black"/>
<path d="M83.0226 24.5329C82.6446 25.5549 82.4104 26.6091 81.9664 27.5999C81.7743 27.1726 81.9403 26.7609 81.9632 26.3523C81.9861 25.9437 82.058 25.5273 82.1095 25.1146C82.1616 24.6873 82.2162 24.26 82.2766 23.7817C82.5062 23.7672 82.7071 23.7433 82.908 23.7433C84.2962 23.7433 85.6844 23.7466 87.0725 23.7532C90.8206 23.7656 94.5686 23.7906 98.3167 23.7875C100.26 23.7875 102.203 23.7355 104.147 23.7059C104.355 23.7027 104.563 23.7059 104.812 23.7059C105.165 24.3333 105.522 24.9633 105.872 25.597C105.888 25.6266 105.846 25.689 105.814 25.7893C105.7 25.707 105.591 25.6187 105.487 25.5247C105.182 25.2175 104.872 24.9129 104.587 24.589C104.396 24.3718 104.182 24.3016 103.901 24.313C103.016 24.3494 102.131 24.379 101.246 24.3894C98.4006 24.4217 95.5549 24.448 92.7092 24.4684C89.6035 24.4877 86.4978 24.4929 83.3911 24.5059C83.2719 24.5053 83.1537 24.5225 83.0226 24.5329Z" fill="black"/>
<path d="M100.23 33.9367C100.131 32.0133 100.035 30.1726 99.9365 28.2628C100.155 28.2934 100.307 28.2934 100.445 28.3376C100.972 28.5081 101.492 28.7015 102.019 28.8694C102.12 28.8951 102.211 28.9482 102.282 29.0227C102.354 29.0973 102.404 29.1904 102.425 29.2915C102.64 30.0931 102.861 30.8936 103.091 31.6905C103.147 31.8818 103.136 32.0195 102.965 32.1407C102.215 32.6709 101.472 33.2099 100.72 33.7365C100.612 33.8124 100.47 33.8431 100.23 33.9367Z" fill="black"/>
<path d="M98.6603 45.1754C98.4838 45.2394 98.4 45.2939 98.3094 45.2986C97.6327 45.335 96.9559 45.3678 96.2823 45.3896C95.8846 45.4026 95.8388 45.3553 95.8138 44.9535C95.6962 43.1564 95.5863 41.3583 95.4645 39.5618C95.2487 36.3652 95.0287 33.1693 94.8045 29.9741C94.7941 29.8244 94.7201 29.6623 94.9304 29.5583C95.1272 29.6711 95.083 29.8858 95.1022 30.0537C95.2277 31.1375 95.3354 32.2229 95.452 33.3073C95.754 36.1143 96.0568 38.9204 96.3604 41.7253C96.4416 42.4825 96.5195 43.2403 96.5941 43.9985C96.653 44.5943 96.6067 44.5142 97.1777 44.679C97.5421 44.783 97.9133 44.8807 98.2787 44.9909C98.3818 45.0195 98.477 45.0829 98.6603 45.1754Z" fill="black"/>
<path d="M102.785 29.2688C102.934 29.3525 103.013 29.3691 103.039 29.4159C103.612 30.4181 104.175 31.423 104.775 32.4876C103.385 33.1633 102.045 33.7871 100.697 34.3969C100.669 34.3501 100.64 34.3033 100.612 34.2571C100.699 34.1691 100.792 34.0873 100.89 34.0122C101.652 33.5033 102.412 32.9908 103.185 32.5006C103.446 32.3368 103.529 32.1783 103.433 31.8684C103.215 31.1594 103.038 30.4379 102.849 29.7205C102.818 29.6036 102.813 29.4767 102.785 29.2688Z" fill="black"/>
<path d="M92.7978 40.3954L91.7046 40.6226C91.3314 40.6995 90.9608 40.7884 90.5849 40.8482C90.2877 40.896 90.0644 41.0042 89.9717 41.316C89.9103 41.5266 89.7635 41.6098 89.5386 41.6009C88.3793 41.5541 87.22 41.5157 86.0607 41.471C86.0186 41.471 85.978 41.4289 85.9082 41.3914C86.0248 41.1913 86.2049 41.2272 86.3632 41.2188C87.1758 41.1773 87.9884 41.1284 88.801 41.1029C89.0873 41.0941 89.3059 41.0286 89.4215 40.7442C89.5105 40.5238 89.6948 40.462 89.9207 40.4443C90.7833 40.3752 91.6448 40.2884 92.5073 40.2203C92.6031 40.2125 92.7036 40.2613 92.802 40.2837L92.7978 40.3954Z" fill="black"/>
<path d="M88.3754 32.0274C88.4462 32.6382 88.5066 33.1564 88.5794 33.7849C88.3972 33.6731 88.2973 33.6425 88.2489 33.577C88.1122 33.3989 87.9943 33.2073 87.897 33.0052C87.7216 32.6111 87.4181 32.4651 87.0058 32.4292C86.5435 32.3886 86.0844 32.3029 85.6247 32.2322C85.5633 32.2228 85.5066 32.1864 85.3889 32.1391C85.7288 31.8938 86.0542 32.0544 86.3535 32.03C86.6789 32.0035 87.0084 32.0274 87.3363 32.03C87.6643 32.0326 87.985 32.0274 88.3754 32.0274Z" fill="black"/>
<path d="M138.139 43.0856C138.077 42.7144 138.023 42.4145 137.979 42.1135C137.32 37.592 136.659 33.0709 135.997 28.5502C135.935 28.1281 136.002 27.8058 136.298 27.4669C137.676 25.8871 139.027 24.2829 140.378 22.6787C140.568 22.4526 140.768 22.3201 141.068 22.2915C142.81 22.1236 144.551 21.9411 146.293 21.7716C146.377 21.7633 146.468 21.8236 146.633 21.8818C146.481 21.9551 146.412 22.005 146.334 22.0238C144.752 22.4069 143.17 22.7952 141.587 23.171C141.351 23.2289 141.139 23.3621 140.985 23.5505C139.714 24.9717 138.445 26.395 137.158 27.8011C136.921 28.061 136.861 28.3142 136.898 28.6448C137.124 30.7444 137.337 32.845 137.554 34.9456C137.748 36.8215 137.943 38.6977 138.138 40.5743C138.207 41.2459 138.282 41.9165 138.346 42.5886C138.357 42.7399 138.447 42.9301 138.139 43.0856Z" fill="black"/>
<path d="M144.182 41.5949C145.314 41.4494 146.445 41.5034 147.623 41.452C147.614 41.2752 147.619 41.1266 147.597 40.9841C147.466 40.1306 147.327 39.2791 147.197 38.4255C147.182 38.3216 147.205 38.215 147.21 38.1136C147.284 38.1136 147.301 38.1136 147.314 38.1136C147.328 38.1136 147.356 38.1209 147.36 38.1313C147.887 39.4253 148.413 40.7199 148.937 42.0149C148.961 42.0747 148.956 42.1465 148.973 42.2847C148.14 42.3014 147.354 42.1054 146.563 42.0149C145.772 41.9245 144.967 41.8226 144.182 41.5949Z" fill="black"/>
<path d="M144.314 33.772C144.121 34.7425 144.254 35.6844 144.018 36.6929C143.904 36.5369 143.82 36.472 143.804 36.3924C143.609 35.4605 143.421 34.5271 143.239 33.5921C143.175 33.2584 143.21 33.2017 143.515 33.1815C145.211 33.0687 146.907 32.9652 148.603 32.8618C148.664 32.8581 148.727 32.8867 148.822 32.908C148.74 33.1123 148.59 33.131 148.439 33.1529C147.239 33.3261 146.038 33.5015 144.837 33.6789C144.667 33.7039 144.498 33.7392 144.314 33.772Z" fill="black"/>
<path d="M129.397 22.9632C130.767 22.8463 132.08 22.7147 133.409 22.7033C132.927 22.9804 132.39 23.0495 131.873 23.1831C131.338 23.3209 130.799 23.443 130.2 23.5896C130.371 27.5798 130.542 31.5461 130.716 35.5924C130.152 35.4775 129.819 35.11 129.437 34.849C129.055 34.5881 128.61 34.3739 128.268 33.9612C128.639 33.8473 128.826 34.1109 129.064 34.2086C129.301 34.3063 129.523 34.4353 129.832 34.5907C129.87 33.2495 129.745 31.9838 129.712 30.7175C129.679 29.4377 129.6 28.1594 129.547 26.8801C129.494 25.6008 129.449 24.3267 129.397 22.9632Z" fill="black"/>
<path d="M126.351 47.185C124.884 47.0155 123.426 46.7847 121.915 46.5404C121.746 43.0742 121.581 39.6496 121.415 36.2182C121.696 36.2021 121.686 36.3591 121.701 36.4911C121.805 37.4029 121.9 38.3152 122.008 39.2264C122.252 41.2896 122.507 43.3518 122.745 45.4155C122.777 45.6837 122.902 45.8027 123.146 45.8833C124.083 46.1895 125.02 46.5107 125.957 46.8294C126.11 46.8814 126.257 46.95 126.406 47.0108C126.388 47.068 126.369 47.1262 126.351 47.185Z" fill="black"/>
<path d="M120.49 27.2051V23.309C121.709 23.1531 122.911 23.1651 124.104 23.0351C124.111 23.0871 124.118 23.1391 124.125 23.191C124.038 23.2238 123.951 23.2602 123.865 23.2883C123.121 23.5196 122.379 23.7561 121.631 23.9755C121.379 24.0488 121.33 24.2265 121.288 24.4376C121.12 25.2693 120.949 26.0998 120.775 26.9291C120.746 27.0533 120.763 27.2213 120.49 27.2051Z" fill="black"/>
<path d="M75.5644 23.7758L79.3198 23.6588L79.3349 23.7805C79.059 23.9842 78.7013 23.9213 78.3916 24.0123C78.06 24.11 77.7149 24.1573 77.3755 24.2306C77.0361 24.3039 76.7019 24.3819 76.299 24.4723C76.0048 27.597 75.7097 30.7222 75.4171 33.8292C74.6732 33.9415 70.6686 33.6821 70.2969 33.5095C70.3864 33.3167 70.5644 33.3894 70.7003 33.3884C71.7935 33.3775 72.8867 33.3775 73.9798 33.3718C74.1506 33.3718 74.3208 33.3577 74.5525 33.3473C74.8903 30.152 75.2261 26.981 75.5644 23.7758Z" fill="black"/>
<path d="M65.9065 31.2493C65.8597 33.7663 65.7394 36.2817 65.664 38.7982C65.5885 41.3235 65.501 43.8483 65.4177 46.4079L67.1043 46.9153C66.9367 47.0166 66.8763 47.0811 66.8076 47.0905C66.121 47.1866 65.4333 47.2786 64.7446 47.3602C64.4479 47.3956 64.3802 47.3218 64.4037 47.0068C64.58 44.7632 64.7585 42.5198 64.9393 40.2766C65.0622 38.7233 65.1837 37.1697 65.3037 35.6158C65.4078 34.27 65.5119 32.9236 65.6202 31.5778C65.6301 31.4556 65.6853 31.3371 65.7191 31.2139L65.9065 31.2493Z" fill="black"/>
<path d="M65.3342 27.873C65.3394 27.7582 65.3519 27.6437 65.3717 27.5305C65.6945 26.2756 66.02 25.0214 66.3483 23.768C66.4649 23.3266 66.48 23.322 66.9579 23.3126C67.962 23.2928 68.9657 23.2736 69.9698 23.2606C70.0797 23.2606 70.19 23.2954 70.3561 23.324C70.2041 23.5554 70.0037 23.5481 69.8355 23.5814C69.0719 23.7326 68.3082 23.8834 67.5409 24.0159C67.2561 24.0679 67.089 24.1921 66.9782 24.4682C66.5716 25.4782 66.1421 26.4789 65.7158 27.4832C65.6528 27.6261 65.646 27.8273 65.3342 27.873Z" fill="black"/>
<path d="M52.2979 49.3018C52.1847 49.1928 52.0774 49.078 51.9762 48.9577C50.2251 46.6315 48.4812 44.3001 46.7227 41.9796C46.5228 41.7155 46.4807 41.4847 46.578 41.1697C47.9981 36.589 49.4106 32.006 50.8154 27.4208C50.8879 27.1539 51.0519 26.9208 51.2787 26.7622C52.9622 25.5693 54.641 24.3699 56.3151 23.1639C56.5645 22.9783 56.8713 22.8863 57.1819 22.904C58.7071 22.956 60.2334 22.9773 61.7591 23.0147C61.9002 23.0184 62.0777 22.9477 62.1756 23.1826C62.0772 23.2128 61.9872 23.2591 61.8935 23.2663C60.4593 23.3849 59.0257 23.5065 57.59 23.6073C57.2441 23.6213 56.9115 23.7443 56.6399 23.9587C55.2214 25.0717 53.792 26.1706 52.3615 27.2685C52.1377 27.4304 51.9741 27.6618 51.8961 27.9266C50.5773 32.2848 49.2501 36.6404 47.9143 40.9934C47.8185 41.3053 47.8581 41.5439 48.0252 41.8189C49.4088 44.1003 50.7835 46.3875 52.1491 48.6806C52.2454 48.8423 52.4473 48.9889 52.2979 49.3018Z" fill="black"/>
<path d="M60.9837 29.6998C60.5969 29.9509 59.0816 30.0086 58.395 29.8973L58.0691 28.0135L58.1831 27.9521C58.2664 28.04 58.383 28.1138 58.4272 28.2183C58.7802 29.05 59.4293 29.442 60.3059 29.5293C60.5381 29.5522 60.7583 29.6411 60.9837 29.6998Z" fill="black"/>
<path d="M30.301 51.4286C30.3022 51.2937 30.3122 51.1589 30.3307 51.0252C30.465 50.3458 30.6134 49.6695 30.744 48.9896C30.8002 48.6969 30.9241 48.4875 31.2125 48.3658C31.5311 48.2312 31.8268 48.0435 32.1423 47.898C32.3708 47.794 32.4728 47.6422 32.5113 47.3896C32.8075 45.4558 33.1167 43.5242 33.426 41.5925C33.9614 38.242 34.4994 34.8918 35.0397 31.5416C35.2622 30.1572 35.4862 28.7731 35.7118 27.3893C35.7378 27.2307 35.7076 27.0394 35.9955 26.9297C35.9955 27.1481 36.0163 27.3264 35.9923 27.4984C35.7799 29.0059 35.5561 30.5134 35.3427 32.0209C34.971 34.6436 34.6024 37.2665 34.237 39.8895C33.8553 42.6325 33.4771 45.3765 33.1027 48.1215C33.0715 48.3518 32.9871 48.5134 32.7701 48.6003C32.7544 48.6065 32.7409 48.6195 32.7248 48.6252C31.8887 48.9044 31.4031 49.5126 31.097 50.3094C30.9736 50.6312 30.7919 50.9332 30.6285 51.2353C30.5764 51.3278 30.4895 51.4 30.4202 51.4817L30.301 51.4286Z" fill="black"/>
<path d="M41.5065 22.1001C41.331 22.1411 41.1572 22.1999 40.9791 22.2196C39.8953 22.3408 38.812 22.4645 37.7262 22.5612C37.3274 22.597 37.0723 22.7327 36.8933 23.1195C36.5533 23.8566 36.1535 24.5661 35.7741 25.2845C35.7074 25.4109 35.6179 25.5247 35.5398 25.6448L35.4242 25.6099C35.4242 25.4883 35.3977 25.3594 35.4284 25.2461C35.7069 24.2116 36.001 23.1808 36.2785 22.1463C36.3456 21.8963 36.4581 21.7653 36.7439 21.7736C38.1973 21.8178 39.6512 21.8448 41.1046 21.8828C41.2378 21.8956 41.3699 21.9183 41.4997 21.9509L41.5065 22.1001Z" fill="black"/>
<path d="M45.6875 45.6948C45.5656 45.7459 45.4408 45.7896 45.3137 45.8258C44.1981 46.0768 43.0831 46.3316 41.9628 46.5629C41.6229 46.6336 41.3902 46.7677 41.3173 47.1258C41.2419 47.5079 41.0128 47.6358 40.6167 47.6348C39.6984 47.6348 38.7801 47.6867 37.8613 47.7107C37.6849 47.7148 37.5074 47.6727 37.3298 47.6524L37.3179 47.5318C37.4157 47.4928 37.511 47.431 37.612 47.418C38.4199 47.314 39.2257 47.2075 40.0383 47.1243C40.2986 47.0973 40.4746 47.0068 40.5022 46.7396C40.5745 46.0379 40.9779 45.8377 41.6515 45.8154C42.8629 45.7743 44.0711 45.6329 45.2804 45.5383C45.4084 45.5365 45.5364 45.5433 45.6635 45.5586C45.6713 45.6048 45.6791 45.6506 45.6875 45.6948Z" fill="black"/>
<path d="M116.617 45.949C116.533 46.001 116.492 46.0447 116.452 46.0442C115.793 46.0405 115.134 46.0281 114.474 46.0234C114.154 46.0234 114.137 45.7988 114.11 45.5639C113.986 44.48 113.856 43.3972 113.731 42.3139C113.432 39.7342 113.134 37.1545 112.837 34.5747C112.821 34.4328 112.719 34.2628 113.01 34.1589C113.055 34.2722 113.124 34.3829 113.143 34.502C113.461 36.4676 113.776 38.4334 114.088 40.3994C114.325 41.8871 114.575 43.3728 114.785 44.8637C114.837 45.2234 114.993 45.37 115.316 45.449C115.669 45.5353 116.014 45.6569 116.357 45.7718C116.447 45.8019 116.512 45.8758 116.617 45.949Z" fill="black"/>
<path d="M117.349 30.7587C117.2 30.7863 117.054 30.8273 116.904 30.8403C115.921 30.924 114.938 31.0171 113.953 31.0748C113.547 31.0987 113.276 31.2188 113.13 31.6289C112.998 32.0016 112.801 32.352 112.622 32.707C112.573 32.8027 112.486 32.8781 112.398 32.9846C112.271 32.6135 112.455 31.0613 112.7 30.3585C114.236 30.4073 115.792 30.4832 117.345 30.6023C117.346 30.6542 117.347 30.7067 117.349 30.7587Z" fill="black"/>
<path d="M138.091 53.8458L139.776 54.2195C139.54 54.612 139.355 54.9384 139.147 55.2509C139.115 55.2893 139.076 55.3211 139.032 55.3444C138.988 55.3676 138.939 55.382 138.889 55.3865C138.338 55.4271 137.785 55.451 137.149 55.4853C137.438 54.8922 137.763 54.3947 138.091 53.8458Z" fill="black"/>
<path d="M44.3062 55.9032C44.8267 55.7701 45.2557 55.6578 45.6877 55.5502C45.8663 55.506 46.0303 55.5221 46.1453 55.6947C46.7866 56.656 47.4287 57.6172 48.0714 58.5782C48.087 58.6016 48.0714 58.6447 48.0714 58.7424L46.5742 59.1214L44.3062 55.9032Z" fill="black"/>
<path d="M98.6779 49.6101C98.6123 50.7756 98.5488 51.9026 98.4843 53.0514H96.8127C96.8471 51.875 96.8799 50.7449 96.9137 49.5925C97.5275 49.4952 98.0683 49.5176 98.6779 49.6101Z" fill="black"/>
<path d="M13.687 68.4536L12.0254 67.2497C12.2222 67.0589 13.1649 66.5656 13.3789 66.5583C13.4971 66.5621 13.6135 66.5892 13.7214 66.6379C13.7983 66.6773 13.8694 66.7272 13.9327 66.786L14.7974 67.4436L13.687 68.4536Z" fill="black"/>
<path d="M115.502 50.4724L117.24 50.6527L116.897 51.8483L115.083 52.1763C115.151 51.5661 115.36 51.0494 115.502 50.4724Z" fill="black"/>
<path d="M117.808 23.5533C117.651 23.5917 117.502 23.6416 117.346 23.6676C116.033 23.8885 114.721 24.1168 113.404 24.3148C113.075 24.3668 112.929 24.5123 112.85 24.8175C112.648 25.5863 112.426 26.3494 112.205 27.113C112.161 27.2659 112.09 27.4109 112.031 27.5596L111.895 27.5408C111.879 27.4192 111.842 27.296 111.853 27.177C111.945 26.1617 112.045 25.1496 112.145 24.1334C112.189 23.6884 112.219 23.6614 112.694 23.637C113.558 23.5922 114.423 23.5512 115.287 23.5075C115.964 23.4737 116.635 23.4373 117.309 23.4036C117.469 23.3958 117.63 23.4036 117.79 23.4036C117.796 23.4545 117.802 23.5039 117.808 23.5533Z" fill="black"/>
<path d="M91.4569 59.2144H92.4606C92.5459 60.1547 92.5126 61.0956 92.5272 62.0968L91.6126 62.1597C91.4267 61.7963 91.3445 60.2025 91.4569 59.2144Z" fill="black"/>
<path d="M100.045 15.2794L98.9307 15.7961V13.4886H100.02C100.087 14.064 100.045 14.6572 100.045 15.2794Z" fill="black"/>
<path d="M113.76 13.3329C113.76 13.8376 113.77 14.3205 113.752 14.8035C113.748 14.9215 113.685 15.0873 113.596 15.1434C113.309 15.3212 112.996 15.4553 112.63 15.6425V13.3505C113.015 13.2767 113.375 13.1795 113.76 13.3329Z" fill="black"/>
</mask>
<g mask="url(#mask0_22_554)">
<rect x="0.571289" y="0.700684" width="189.862" height="85.4731" fill="url(#paint0_linear_22_554)"/>
</g>
<defs>
<linearGradient id="paint0_linear_22_554" x1="95.5024" y1="0.700684" x2="95.5024" y2="86.1737" gradientUnits="userSpaceOnUse">
<stop offset="0.112101" stop-color="#FF7F38"/>
<stop offset="0.914412" stop-color="#FD480F"/>
</linearGradient>
</defs>
</svg>
