<svg width="148" height="46" viewBox="0 0 148 46" fill="none" xmlns="http://www.w3.org/2000/svg">
<g filter="url(#filter0_d_1_333)">
<rect width="145" height="43" rx="21.5" fill="#F35C41"/>
<path d="M32.6454 15.0122C31.7929 15.0122 30.9752 15.3509 30.3724 15.9537C29.7695 16.5566 29.4309 17.3742 29.4309 18.2267C29.4309 19.0793 29.7695 19.8969 30.3724 20.4998C30.9752 21.1026 31.7929 21.4413 32.6454 21.4413C33.498 21.4413 34.3156 21.1026 34.9184 20.4998C35.5213 19.8969 35.8599 19.0793 35.8599 18.2267C35.8599 17.3742 35.5213 16.5566 34.9184 15.9537C34.3156 15.3509 33.498 15.0122 32.6454 15.0122ZM32.6454 16.5391C32.867 16.5391 33.0865 16.5828 33.2912 16.6676C33.496 16.7524 33.682 16.8767 33.8387 17.0334C33.9955 17.1901 34.1198 17.3762 34.2046 17.5809C34.2894 17.7857 34.333 18.0051 34.333 18.2267C34.333 18.4484 34.2894 18.6678 34.2046 18.8726C34.1198 19.0773 33.9955 19.2634 33.8387 19.4201C33.682 19.5768 33.496 19.7011 33.2912 19.7859C33.0865 19.8707 32.867 19.9144 32.6454 19.9144C32.4238 19.9144 32.2043 19.8707 31.9996 19.7859C31.7948 19.7011 31.6088 19.5768 31.4521 19.4201C31.2954 19.2634 31.1711 19.0773 31.0862 18.8726C31.0014 18.6678 30.9578 18.4484 30.9578 18.2267C30.9578 17.7792 31.1356 17.3499 31.4521 17.0334C31.7686 16.7169 32.1978 16.5391 32.6454 16.5391ZM23.8054 17.4231V19.834H21.3945V21.4413H23.8054V23.8522H25.4127V21.4413H27.8236V19.834H25.4127V17.4231H23.8054ZM32.6454 22.2449C30.4997 22.2449 26.2163 23.3137 26.2163 25.4594V27.8704H39.0745V25.4594C39.0745 23.3137 34.7911 22.2449 32.6454 22.2449ZM32.6454 23.7718C35.0322 23.7718 37.5476 24.9451 37.5476 25.4594V26.3434H27.7432V25.4594C27.7432 24.9451 30.2345 23.7718 32.6454 23.7718Z" fill="white"/>
<path d="M57.5959 24.216C57.4679 22.984 57.0519 22.072 55.9639 21.656C57.2759 21.288 58.1239 20.392 58.1239 18.968C58.1239 17.064 56.8279 16.232 55.2279 16.04C54.6839 15.976 54.2679 15.96 53.6279 15.96H49.5959V27H51.8039V22.552H53.0839C53.3719 22.552 53.6439 22.552 53.9479 22.568C54.8439 22.632 55.2919 23.352 55.4359 24.536C55.5479 25.576 55.7079 26.248 55.9799 27H58.3959C57.9479 26.376 57.7399 25.56 57.5959 24.216ZM51.8039 20.904V17.688H53.4199C53.8199 17.688 54.0919 17.704 54.3479 17.736C55.2119 17.848 55.8039 18.232 55.8039 19.304C55.8039 20.376 55.0999 20.808 54.2199 20.888C53.9799 20.904 53.7079 20.904 53.3239 20.904H51.8039ZM68.0326 25.256H62.2726V22.344H67.4726V20.6H62.2726V17.688H67.8726V15.96H60.0646V27H68.0326V25.256ZM74.98 21.368V23.096H77.316C77.092 24.648 76.084 25.576 74.66 25.576C72.932 25.576 71.652 24.168 71.652 21.416C71.652 18.904 72.932 17.384 74.724 17.384C76.196 17.384 77.028 18.184 77.3 19.544L77.332 19.704H79.54L79.524 19.544C79.3 17.368 77.748 15.736 74.756 15.736C71.668 15.736 69.316 17.928 69.316 21.544C69.316 25.048 71.252 27.224 74.324 27.224C75.54 27.224 76.388 26.936 77.012 26.328L77.508 25.208L77.652 27H79.428V21.368H74.98ZM83.9289 27V15.96H81.7209V27H83.9289ZM90.0568 15.736C87.9448 15.736 86.1048 16.936 86.1048 18.968C86.1048 21 87.5288 21.784 89.7848 22.328C91.4168 22.712 91.9928 23.256 91.9928 24.184C91.9928 25.032 91.1928 25.576 90.1848 25.576C89.0648 25.576 88.1368 24.952 87.8968 23.736H85.6408C85.8488 26.056 87.5768 27.224 90.2168 27.224C92.3928 27.224 94.2968 26.04 94.2968 23.96C94.2968 22.184 93.2088 21.064 90.7768 20.504C89.0168 20.088 88.4248 19.624 88.4248 18.696C88.4248 17.8 89.0968 17.384 89.9768 17.384C91.1288 17.384 91.7528 18.088 91.8808 19.208H94.1368C93.8968 17.24 92.6968 15.736 90.0568 15.736ZM104.767 17.688V15.96H95.0711V17.688H98.8151V27H101.023V17.688H104.767ZM114.064 25.256H108.304V22.344H113.504V20.6H108.304V17.688H113.904V15.96H106.096V27H114.064V25.256ZM123.955 24.216C123.827 22.984 123.411 22.072 122.323 21.656C123.635 21.288 124.483 20.392 124.483 18.968C124.483 17.064 123.187 16.232 121.587 16.04C121.043 15.976 120.627 15.96 119.987 15.96H115.955V27H118.163V22.552H119.443C119.731 22.552 120.003 22.552 120.307 22.568C121.203 22.632 121.651 23.352 121.795 24.536C121.907 25.576 122.067 26.248 122.339 27H124.755C124.307 26.376 124.099 25.56 123.955 24.216ZM118.163 20.904V17.688H119.779C120.179 17.688 120.451 17.704 120.707 17.736C121.571 17.848 122.163 18.232 122.163 19.304C122.163 20.376 121.459 20.808 120.579 20.888C120.339 20.904 120.067 20.904 119.683 20.904H118.163Z" fill="white"/>
<rect x="1" y="1" width="143" height="41" rx="20.5" stroke="#1A1A1A" stroke-width="2"/>
</g>
<defs>
<filter id="filter0_d_1_333" x="0" y="0" width="148" height="46" filterUnits="userSpaceOnUse" color-interpolation-filters="sRGB">
<feFlood flood-opacity="0" result="BackgroundImageFix"/>
<feColorMatrix in="SourceAlpha" type="matrix" values="0 0 0 0 0 0 0 0 0 0 0 0 0 0 0 0 0 0 127 0" result="hardAlpha"/>
<feOffset dx="3" dy="3"/>
<feComposite in2="hardAlpha" operator="out"/>
<feColorMatrix type="matrix" values="0 0 0 0 0.101961 0 0 0 0 0.101961 0 0 0 0 0.101961 0 0 0 1 0"/>
<feBlend mode="normal" in2="BackgroundImageFix" result="effect1_dropShadow_1_333"/>
<feBlend mode="normal" in="SourceGraphic" in2="effect1_dropShadow_1_333" result="shape"/>
</filter>
</defs>
</svg>
