<svg width="227" height="90" viewBox="0 0 227 90" fill="white" xmlns="http://www.w3.org/2000/svg">
<path d="M35.6848 30.9624L30.2757 24.6518L13.2973 24.0508L6.91158 29.7603L0 80.0195L5.33394 86.4052L19.3073 85.2032L19.6079 82.5738L24.3408 88.2834L40.1172 89.9362L35.6848 30.9624Z" fill="black"/>
<path d="M12.7714 77.4653L14.4993 59.8107L19.9835 59.2848L20.885 80.5454L33.2808 81.8977L29.0737 26.3797L14.1988 25.9289L8.78973 30.737L2.17865 78.3668L12.7714 77.4653ZM17.4292 38.0993L19.6079 37.8739L19.8332 48.6921L16.3023 48.9926L17.4292 38.0993Z" fill="white"/>
<path d="M21.1104 59.1346L22.0119 79.6439V68.8258L21.1104 59.1346ZM28.1722 27.4314L14.6495 26.9807L9.84149 31.338L3.53092 77.2399L10.8181 32.1644L15.7013 27.8822L28.1722 27.4314ZM20.7347 37.7237L20.9601 49.7438L16.3023 50.0443L21.9368 50.6453L20.7347 37.7237Z" fill="black"/>
<path d="M50.1199 57.536L50.6864 30.7188L46.2169 25.3679L32.2417 24.8643L32.8083 36.5103L34.8857 38.9025L35.3263 61.1872L34.445 61.439L34.8857 70.3151L39.3552 75.666H63.2137L63.5285 62.9498L58.996 57.599L50.1199 57.536Z" fill="black"/>
<path d="M45.0838 26.9417L34.0043 26.564L34.445 35.3772L36.4594 35.5031L37.026 62.4462L36.2076 62.698L36.5224 69.182H57.674L57.8629 59.2357L47.9166 59.1728L47.6648 61.9426L44.3283 62.0685L45.0838 26.9417Z" fill="white"/>
<path d="M43.9963 27.5084L34.6795 27.1936L35.0572 34.3071L35.5609 27.8861L43.9963 27.5084ZM37.1346 35.1255L37.7012 62.7611L36.8828 63.0129L37.1346 67.9861L37.7012 63.7683L38.5196 63.5165L37.1346 35.1255ZM56.7754 59.8024L48.5288 59.7394L48.214 62.5093L44.0593 62.6352L49.0324 63.2018L49.3472 60.4949L56.7754 59.8024Z" fill="black"/>
<path d="M74.1558 46.5681L86.6584 47.2439L82.9977 32.0943L78.9991 27.3073L65.9896 25.2798L58.5556 34.1781L57.2603 60.0281L70.5514 73.4318L87.0526 68.7011L87.3905 58.7891L83.3919 54.002L74.1558 53.8331V46.5681Z" fill="black"/>
<path d="M78.2107 28.4899L66.7218 26.6878L60.0199 34.7413L58.7809 59.6339L67.116 67.3494L82.0403 63.0693L82.3219 55.2974L73.7052 55.1847L73.3673 58.4512L69.1434 59.8591V36.5434L71.903 34.9102L71.5651 40.6547L81.3082 41.2178L78.2107 28.4899Z" fill="white"/>
<path d="M77.8022 29.1662L67.2707 27.533L60.963 35.0233L59.7804 59.2964L67.4959 66.5051H67.5523L60.5688 59.1275L61.7515 35.6991L68.0028 28.2088L77.8022 29.1662ZM81.7444 56.0863L74.6483 55.9737L74.3104 59.0712L69.3544 60.7044L75.0426 59.6907L75.3805 56.6495L81.7444 56.0863ZM72.9025 34.6291L72.6209 39.923L74.761 40.0356L73.2967 39.4161L72.9025 34.6291Z" fill="black"/>
<path d="M81.3719 36.599L83.7284 39.4165L84.2407 62.9812L87.929 67.2843L96.4328 66.311L96.484 65.0303L99.3015 68.4113L108.061 68.0527L109.803 29.2735L106.166 24.9191L96.2791 25.3289L96.1254 30.3492L96.0742 29.5296L92.4371 25.1753L81.7305 26.3023L81.3719 36.599Z" fill="black"/>
<path d="M91.4125 26.4559L82.8575 27.3268L82.6014 35.7281L84.8554 36.3429L85.4189 61.7005L91.7199 60.9833L92.1809 49.0985L96.8426 49.3547V62.9299L103.349 62.6738L105.039 26.1486L97.4574 26.4559L96.9963 42.7975L92.3346 42.4902L91.4125 26.4559Z" fill="white"/>
<path d="M90.733 27.0705L83.5099 27.8389L83.2538 35.062L84.1759 28.4536L90.733 27.0705ZM85.5078 36.0865L86.0713 60.7782L89.3499 60.5733L86.6861 60.0098L85.5078 36.0865ZM97.4951 49.0983V62.0589L97.9049 53.8112L97.4951 49.0983ZM104.206 26.7631L98.0586 26.968L97.6487 43.4121L92.2699 43.0535L98.3147 44.0268L98.7757 27.5827L104.206 26.7631Z" fill="black"/>
<path d="M106.933 36.3624L107.519 59.4106L110.722 63.2444L127.816 64.0112L129.169 52.9156L125.967 49.0817L124.027 49.217V43.3084L120.825 39.4745H120.148L126.914 39.0686L126.147 29.0104L122.945 25.1765L105.354 26.4395L105.805 34.9641L106.933 36.3624Z" fill="black"/>
<path d="M123.982 59.2302L125.065 50.2093L120.78 50.48V51.9233L115.052 52.7352L114.33 46.3755H120.058V40.557L113.608 40.6924L113.338 33.4306L116.405 32.7991L116.901 34.7837L122.855 34.3778L122.268 26.3041L106.617 27.4317L106.978 33.9267L108.105 33.7914L108.737 58.5536L123.982 59.2302Z" fill="white"/>
<path d="M124.376 50.7959L121.444 50.9763V52.4197L115.085 53.2766L121.76 52.9609L121.986 51.3372L124.376 50.7959ZM119.46 43.1733V41.1436L113.596 41.2338L118.964 41.6398L119.46 43.1733ZM117.069 32.5738L117.43 34.0172H118.919L117.656 33.6112L117.069 32.5738ZM121.715 26.8907L107.327 27.9281L107.597 33.1602L107.913 28.4694L121.715 26.8907ZM108.77 33.6112L109.357 57.8773L109.402 44.4362L108.77 33.6112Z" fill="black"/>
<path d="M124.046 35.233L126.838 38.5151L127.083 61.1466L130.561 65.3104L139.721 64.3797L139.77 62.2243L142.513 65.5064L153.486 61.0486L147.461 51.5453L152.115 45.765L145.404 29.7465L141.926 25.5827L125.319 25.2888L124.046 35.233Z" fill="black"/>
<path d="M141.24 26.6114L126.299 26.3665L125.27 34.1063H127.867L128.16 59.922L135.214 59.2361L135.459 50.0268L138.203 48.9001L139.917 59.775L148.392 56.346L142.66 47.2836L147.412 41.4052L141.24 26.6114ZM136.488 35.086L137.909 41.4052L135.068 43.4137L134.921 34.2533L136.488 35.086Z" fill="white"/>
<path d="M140.786 27.1995L126.923 26.9546L126.091 33.3228L127.56 27.4934L140.786 27.1995ZM128.589 33.9106L128.883 59.0894L132.459 59.0404L129.471 58.5506L128.589 33.9106ZM138.876 48.6064L140.492 58.7465L140.101 53.3091L138.876 48.6064ZM137.161 34.7923L138.729 41.6014L135.055 44.1487L139.366 42.1892L137.161 34.7923Z" fill="black"/>
<path d="M150.096 62.5156L153.245 66.2864L161.408 65.8428L162.828 39.9347L162.562 39.6242L163.05 39.7129L162.739 29.0214L159.589 25.2949L148.543 26.049L147.833 34.6555L148.72 35.7646L148.543 43.2176L150.317 45.347L150.096 62.5156Z" fill="black"/>
<path d="M158.613 37.0067L149.652 36.6518L149.519 42.1972L151.338 42.419L151.072 61.3621L157.327 61.0072L158.613 37.0067ZM158.658 26.2265L149.474 26.8476L148.853 33.6795L158.879 34.6998L158.658 26.2265Z" fill="white"/>
<path d="M157.846 37.4058L150.127 37.0952L150.038 41.4872L150.704 37.6276L157.846 37.4058ZM151.857 42.1526L151.591 60.519L155.096 60.3859L152.212 59.9423L151.857 42.1526ZM157.935 26.6699L149.905 27.2466L149.417 32.9251L150.482 27.7346L157.935 26.6699Z" fill="black"/>
<path d="M171.91 60.1981L174.648 63.4651L182.239 64.426L183.2 29.1134L179.789 25.0296L170.276 25.9424L170.42 28.4408L168.258 25.8944L159.803 25.51L159.13 33.8698L160.523 35.5513L159.274 59.045L162.685 63.0807L171.958 62.36L171.91 60.1981Z" fill="black"/>
<path d="M167.538 26.9514L160.86 26.7112L160.331 33.1491L161.772 33.5815L160.475 57.94L167.538 57.3634L167.105 42.2295L172.102 58.5165L177.867 59.1891L178.78 26.2788L171.477 26.9514L172.39 41.6049L167.538 26.9514Z" fill="white"/>
<path d="M200.978 38.6094L201.625 38.5232L198.349 30.0325L195.289 26.3689L187.402 25.5931L179.514 33.4805L180.764 53.9099L183.824 57.5735L190.634 61.8404L193.263 61.2801L195.892 64.4264L202.314 63.6506L202.487 40.3765L200.978 38.6094Z" fill="black"/>
<path d="M194.643 27.1878L187.79 26.5413L180.549 33.7822L181.712 53.2634L187.79 57.0994L193.953 55.8064L193.824 59.5992L198.306 59.082L198.435 37.7474L188.178 38.9111L188.565 45.6347H192.919L193.306 49.8585L188.953 50.1171L186.971 48.2638L186.324 35.0752L189.341 33.265L189.772 35.3769L197.272 34.0408L194.643 27.1878Z" fill="white"/>
<path d="M201.973 29.4968L205.767 25.071L217.674 24.6495L222.153 28.6538L227 63.902L223.259 68.3805L213.459 67.5375L213.248 65.6934L209.929 69.6977L198.865 70.8568L201.973 29.4968Z" fill="black"/>
<path d="M218.043 62.1106L216.831 49.729L212.985 49.3601L212.353 64.2708L203.659 65.2192L206.61 26.2828L217.042 25.9667L220.835 29.3387L225.472 62.7429L218.043 62.1106ZM214.776 34.5021L213.248 34.3441L213.09 41.9311L215.567 42.1419L214.776 34.5021Z" fill="white"/>
<path d="M167.044 27.5762L161.471 27.336L161.039 32.6689L162.096 27.9125L167.044 27.5762ZM162.432 33.4376L161.183 57.1715L165.843 57.0274L161.856 56.5469L162.432 33.4376ZM166.948 39.5392L172.618 57.8441L169.543 46.5057L166.948 39.5392ZM178.095 26.9997L172.137 27.5281L173.05 42.1336L172.329 42.2778L173.723 42.7102L172.81 28.1047L178.095 26.9997Z" fill="black"/>
<path d="M194.287 27.7484L188.081 27.1881L181.228 34.041L182.391 52.962L181.788 34.5151L188.641 27.6622L194.287 27.7484ZM194.675 55.6773L194.546 58.9529L196.614 58.8667L195.063 58.565L194.675 55.6773ZM197.95 38.4372L188.899 39.4716L189.201 45.0746L189.46 39.9888L197.95 38.4372ZM193.597 45.5488L194.071 50.4191L188.856 50.7639L194.632 50.9363L193.597 45.5488ZM190.02 33.0928L190.322 34.6875L191.873 34.472L190.58 34.1703L190.02 33.0928Z" fill="black"/>
<path d="M212.195 49.255L211.562 63.6388V56.0517L212.195 49.255ZM207.242 27.0207L216.726 26.7045L220.098 29.7605L224.524 61.9528L219.413 30.34L215.988 27.3368L207.242 27.0207ZM212.458 34.2389L212.3 42.669L215.567 42.8798L211.615 43.3013L212.458 34.2389Z" fill="black"/>
<g filter="url(#filter0_d_97_1903)">
<path d="M160.64 85H163.488V73.816H157.312C157.04 73.816 156.816 73.944 156.64 74.168C156.448 74.392 156.368 74.632 156.368 74.888V85H159.216V82.888L160.64 82.008V85ZM160.64 79.16L159.216 80.024V76.728C159.216 76.488 159.28 76.36 159.424 76.36H160.64V79.16ZM167.587 85H170.051V75.352H164.723C164.483 75.352 164.291 75.464 164.131 75.656C163.971 75.864 163.907 76.072 163.907 76.296V85H166.371V83.176L167.587 82.424V85ZM167.587 79.96L166.371 80.712V77.864C166.371 77.672 166.419 77.56 166.547 77.56H167.587V79.96ZM172.926 82.792H174.142V81.224L176.606 80.136V85H170.462V75.352H172.926V82.792ZM183.161 76.296C183.161 76.072 183.081 75.864 182.921 75.656C182.761 75.464 182.569 75.352 182.345 75.352H177.833C177.593 75.352 177.401 75.464 177.241 75.656C177.081 75.864 177.017 76.072 177.017 76.296V84.072C177.017 84.296 177.081 84.504 177.241 84.696C177.401 84.904 177.593 85 177.833 85H182.345C182.569 85 182.761 84.904 182.921 84.696C183.081 84.504 183.161 84.296 183.161 84.072V76.296ZM180.697 82.488C180.697 82.696 180.633 82.792 180.537 82.792H179.657C179.529 82.792 179.481 82.696 179.481 82.488V77.864C179.481 77.672 179.529 77.56 179.657 77.56H180.537C180.633 77.56 180.697 77.672 180.697 77.864V82.488ZM189.716 76.296C189.716 76.072 189.636 75.864 189.476 75.656C189.316 75.464 189.124 75.352 188.9 75.352H184.388C184.148 75.352 183.956 75.464 183.796 75.656C183.636 75.864 183.572 76.072 183.572 76.296V84.072C183.572 84.296 183.636 84.504 183.796 84.696C183.956 84.904 184.148 85 184.388 85H188.9C189.124 85 189.316 84.904 189.476 84.696C189.636 84.504 189.716 84.296 189.716 84.072V76.296ZM187.252 82.488C187.252 82.696 187.188 82.792 187.092 82.792H186.212C186.084 82.792 186.036 82.696 186.036 82.488V77.864C186.036 77.672 186.084 77.56 186.212 77.56H187.092C187.188 77.56 187.252 77.672 187.252 77.864V82.488ZM196.303 82.792H197.519V81.224L199.983 80.136V85H193.839V75.352H196.303V82.792ZM200.394 85H206.138V82.2C205.914 82.36 205.706 82.488 205.514 82.616C205.322 82.744 205.098 82.792 204.81 82.792H202.858V81.288H204.202C204.458 81.288 204.666 81.352 204.858 81.448C205.034 81.56 205.226 81.688 205.45 81.816V78.552C205.226 78.696 205.018 78.824 204.826 78.92C204.634 79.032 204.426 79.08 204.202 79.08H202.858V77.56H204.81C205.098 77.56 205.322 77.624 205.514 77.752C205.706 77.88 205.914 78.024 206.138 78.152V75.352H200.394V85ZM209.022 82.792H210.238V81.224L212.702 80.136V85H206.558V75.352H209.022V82.792ZM219.257 76.296C219.257 76.072 219.177 75.864 219.017 75.656C218.857 75.464 218.665 75.352 218.441 75.352H213.929C213.689 75.352 213.497 75.464 213.337 75.656C213.177 75.864 213.113 76.072 213.113 76.296V84.072C213.113 84.296 213.177 84.504 213.337 84.696C213.497 84.904 213.689 85 213.929 85H218.441C218.665 85 218.857 84.904 219.017 84.696C219.177 84.504 219.257 84.296 219.257 84.072V76.296ZM216.793 82.488C216.793 82.696 216.729 82.792 216.633 82.792H215.753C215.625 82.792 215.577 82.696 215.577 82.488V77.864C215.577 77.672 215.625 77.56 215.753 77.56H216.633C216.729 77.56 216.793 77.672 216.793 77.864V82.488Z" fill="white"/>
<path d="M160.64 85H159.851V85.7889H160.64V85ZM163.488 85V85.7889H164.277V85H163.488ZM163.488 73.816H164.277V73.0271H163.488V73.816ZM156.64 74.168L157.239 74.6814L157.25 74.6686L157.26 74.6554L156.64 74.168ZM156.368 85H155.579V85.7889H156.368V85ZM159.216 85V85.7889H160.005V85H159.216ZM159.216 82.888L158.801 82.2169L158.427 82.4481V82.888H159.216ZM160.64 82.008H161.429V80.5931L160.225 81.3369L160.64 82.008ZM160.64 79.16L161.049 79.8345L161.429 79.6041V79.16H160.64ZM159.216 80.024H158.427V81.4254L159.625 80.6985L159.216 80.024ZM160.64 76.36H161.429V75.5711H160.64V76.36ZM160.64 85.7889H163.488V84.2111H160.64V85.7889ZM164.277 85V73.816H162.699V85H164.277ZM163.488 73.0271H157.312V74.6049H163.488V73.0271ZM157.312 73.0271C156.754 73.0271 156.316 73.3039 156.02 73.6806L157.26 74.6554C157.277 74.6345 157.29 74.6214 157.299 74.6137C157.308 74.6061 157.312 74.6036 157.313 74.6034C157.313 74.6033 157.311 74.6042 157.308 74.6048C157.306 74.6055 157.306 74.6049 157.312 74.6049V73.0271ZM156.041 73.6546C155.724 74.024 155.579 74.4469 155.579 74.888H157.157C157.157 74.8171 157.172 74.76 157.239 74.6814L156.041 73.6546ZM155.579 74.888V85H157.157V74.888H155.579ZM156.368 85.7889H159.216V84.2111H156.368V85.7889ZM160.005 85V82.888H158.427V85H160.005ZM159.631 83.5591L161.055 82.6791L160.225 81.3369L158.801 82.2169L159.631 83.5591ZM159.851 82.008V85H161.429V82.008H159.851ZM160.231 78.4855L158.807 79.3495L159.625 80.6985L161.049 79.8345L160.231 78.4855ZM160.005 80.024V76.728H158.427V80.024H160.005ZM160.005 76.728C160.005 76.651 160.02 76.7199 159.958 76.8333C159.92 76.9028 159.85 76.9921 159.737 77.0602C159.622 77.1289 159.508 77.1489 159.424 77.1489V75.5711C159.268 75.5711 159.092 75.6071 158.925 75.7073C158.759 75.8069 158.646 75.9432 158.574 76.0747C158.444 76.3121 158.427 76.565 158.427 76.728H160.005ZM159.424 77.1489H160.64V75.5711H159.424V77.1489ZM159.851 76.36V79.16H161.429V76.36H159.851ZM167.587 85H166.798V85.7889H167.587V85ZM170.051 85V85.7889H170.84V85H170.051ZM170.051 75.352H170.84V74.5631H170.051V75.352ZM164.131 75.656L163.525 75.151L163.515 75.1628L163.506 75.175L164.131 75.656ZM163.907 85H163.118V85.7889H163.907V85ZM166.371 85V85.7889H167.16V85H166.371ZM166.371 83.176L165.956 82.505L165.582 82.7363V83.176H166.371ZM167.587 82.424H168.376V81.0086L167.172 81.753L167.587 82.424ZM167.587 79.96L168.002 80.631L168.376 80.3997V79.96H167.587ZM166.371 80.712H165.582V82.1274L166.786 81.383L166.371 80.712ZM167.587 77.56H168.376V76.7711H167.587V77.56ZM167.587 85.7889H170.051V84.2111H167.587V85.7889ZM170.84 85V75.352H169.262V85H170.84ZM170.051 74.5631H164.723V76.1409H170.051V74.5631ZM164.723 74.5631C164.194 74.5631 163.796 74.8259 163.525 75.151L164.737 76.161C164.767 76.1254 164.778 76.1228 164.767 76.1289C164.761 76.1319 164.753 76.1355 164.743 76.138C164.732 76.1406 164.725 76.1409 164.723 76.1409V74.5631ZM163.506 75.175C163.24 75.5213 163.118 75.8985 163.118 76.296H164.696C164.696 76.2612 164.701 76.2398 164.706 76.2237C164.712 76.2073 164.724 76.1792 164.757 76.137L163.506 75.175ZM163.118 76.296V85H164.696V76.296H163.118ZM163.907 85.7889H166.371V84.2111H163.907V85.7889ZM167.16 85V83.176H165.582V85H167.16ZM166.786 83.847L168.002 83.095L167.172 81.753L165.956 82.505L166.786 83.847ZM166.798 82.424V85H168.376V82.424H166.798ZM167.172 79.289L165.956 80.041L166.786 81.383L168.002 80.631L167.172 79.289ZM167.16 80.712V77.864H165.582V80.712H167.16ZM167.16 77.864C167.16 77.8047 167.173 77.8899 167.106 78.014C167.065 78.0902 166.991 78.1852 166.872 78.257C166.752 78.3289 166.633 78.3489 166.547 78.3489V76.7711C166.397 76.7711 166.225 76.8051 166.06 76.904C165.895 77.0028 165.786 77.1378 165.717 77.266C165.594 77.4941 165.582 77.7313 165.582 77.864H167.16ZM166.547 78.3489H167.587V76.7711H166.547V78.3489ZM166.798 77.56V79.96H168.376V77.56H166.798ZM172.926 82.792H172.137V83.5809H172.926V82.792ZM174.142 82.792V83.5809H174.931V82.792H174.142ZM174.142 81.224L173.824 80.5023L173.353 80.71V81.224H174.142ZM176.606 80.136H177.395V78.9253L176.288 79.4143L176.606 80.136ZM176.606 85V85.7889H177.395V85H176.606ZM170.462 85H169.673V85.7889H170.462V85ZM170.462 75.352V74.5631H169.673V75.352H170.462ZM172.926 75.352H173.715V74.5631H172.926V75.352ZM172.926 83.5809H174.142V82.0031H172.926V83.5809ZM174.931 82.792V81.224H173.353V82.792H174.931ZM174.461 81.9457L176.925 80.8577L176.288 79.4143L173.824 80.5023L174.461 81.9457ZM175.817 80.136V85H177.395V80.136H175.817ZM176.606 84.2111H170.462V85.7889H176.606V84.2111ZM171.251 85V75.352H169.673V85H171.251ZM170.462 76.1409H172.926V74.5631H170.462V76.1409ZM172.137 75.352V82.792H173.715V75.352H172.137ZM182.921 75.656L183.547 75.175L183.537 75.1628L183.527 75.151L182.921 75.656ZM177.241 75.656L176.635 75.151L176.625 75.1628L176.616 75.175L177.241 75.656ZM177.241 84.696L177.867 84.215L177.857 84.2028L177.847 84.191L177.241 84.696ZM182.921 84.696L182.315 84.191L182.305 84.2028L182.296 84.215L182.921 84.696ZM183.95 76.296C183.95 75.8631 183.789 75.4905 183.547 75.175L182.296 76.137C182.373 76.2375 182.372 76.2809 182.372 76.296H183.95ZM183.527 75.151C183.264 74.8344 182.867 74.5631 182.345 74.5631V76.1409C182.335 76.1409 182.322 76.1395 182.309 76.1361C182.296 76.1327 182.287 76.1285 182.282 76.1257C182.272 76.1205 182.285 76.125 182.315 76.161L183.527 75.151ZM182.345 74.5631H177.833V76.1409H182.345V74.5631ZM177.833 74.5631C177.304 74.5631 176.906 74.8259 176.635 75.151L177.847 76.161C177.877 76.1254 177.888 76.1228 177.877 76.1289C177.871 76.1319 177.863 76.1355 177.853 76.138C177.842 76.1406 177.835 76.1409 177.833 76.1409V74.5631ZM176.616 75.175C176.35 75.5213 176.228 75.8985 176.228 76.296H177.806C177.806 76.2612 177.811 76.2398 177.816 76.2237C177.822 76.2073 177.834 76.1792 177.867 76.137L176.616 75.175ZM176.228 76.296V84.072H177.806V76.296H176.228ZM176.228 84.072C176.228 84.4644 176.347 84.8554 176.635 85.201L177.847 84.191C177.826 84.1648 177.818 84.1478 177.815 84.1379C177.811 84.1272 177.806 84.1077 177.806 84.072H176.228ZM176.616 85.177C176.915 85.5657 177.332 85.7889 177.833 85.7889V84.2111C177.826 84.2111 177.828 84.2104 177.836 84.2122C177.844 84.2141 177.855 84.2177 177.866 84.2233C177.877 84.2288 177.883 84.2336 177.884 84.2344C177.884 84.2349 177.878 84.2299 177.867 84.215L176.616 85.177ZM177.833 85.7889H182.345V84.2111H177.833V85.7889ZM182.345 85.7889C182.84 85.7889 183.254 85.5576 183.547 85.177L182.296 84.215C182.285 84.2299 182.278 84.2356 182.278 84.2359C182.278 84.2359 182.283 84.2316 182.293 84.2263C182.303 84.2209 182.315 84.2166 182.326 84.2139C182.338 84.2112 182.345 84.2111 182.345 84.2111V85.7889ZM183.527 85.201C183.791 84.8847 183.95 84.5021 183.95 84.072H182.372C182.372 84.0899 182.372 84.1233 182.315 84.191L183.527 85.201ZM183.95 84.072V76.296H182.372V84.072H183.95ZM179.908 82.488C179.908 82.5319 179.898 82.4518 179.965 82.3325C180.003 82.2645 180.071 82.1761 180.183 82.1057C180.299 82.0332 180.424 82.0031 180.537 82.0031V83.5809C180.907 83.5809 181.193 83.369 181.342 83.1035C181.464 82.8842 181.486 82.6521 181.486 82.488H179.908ZM180.537 82.0031H179.657V83.5809H180.537V82.0031ZM179.657 82.0031C179.723 82.0031 179.833 82.0158 179.953 82.0809C180.078 82.1488 180.161 82.2454 180.21 82.3325C180.254 82.411 180.266 82.4735 180.269 82.4911C180.272 82.5107 180.27 82.5129 180.27 82.488H178.692C178.692 82.6169 178.701 82.8671 178.833 83.1035C178.91 83.2406 179.029 83.3742 179.199 83.4666C179.363 83.5562 179.527 83.5809 179.657 83.5809V82.0031ZM180.27 82.488V77.864H178.692V82.488H180.27ZM180.27 77.864C180.27 77.8047 180.283 77.8899 180.216 78.014C180.175 78.0902 180.101 78.1852 179.982 78.257C179.862 78.3289 179.743 78.3489 179.657 78.3489V76.7711C179.507 76.7711 179.335 76.8051 179.17 76.904C179.005 77.0028 178.896 77.1378 178.827 77.266C178.704 77.4941 178.692 77.7313 178.692 77.864H180.27ZM179.657 78.3489H180.537V76.7711H179.657V78.3489ZM180.537 78.3489C180.399 78.3489 180.265 78.3059 180.154 78.2291C180.049 78.1568 179.99 78.0719 179.959 78.014C179.902 77.9084 179.908 77.8395 179.908 77.864H181.486C181.486 77.6965 181.461 77.4756 181.348 77.266C181.224 77.0349 180.953 76.7711 180.537 76.7711V78.3489ZM179.908 77.864V82.488H181.486V77.864H179.908ZM189.476 75.656L190.102 75.175L190.092 75.1628L190.082 75.151L189.476 75.656ZM183.796 75.656L183.19 75.151L183.18 75.1628L183.171 75.175L183.796 75.656ZM183.796 84.696L184.422 84.215L184.412 84.2028L184.402 84.191L183.796 84.696ZM189.476 84.696L188.87 84.191L188.86 84.2028L188.851 84.215L189.476 84.696ZM190.505 76.296C190.505 75.8631 190.344 75.4905 190.102 75.175L188.851 76.137C188.928 76.2375 188.927 76.2809 188.927 76.296H190.505ZM190.082 75.151C189.819 74.8344 189.422 74.5631 188.9 74.5631V76.1409C188.89 76.1409 188.877 76.1395 188.864 76.1361C188.851 76.1327 188.842 76.1285 188.837 76.1257C188.827 76.1205 188.84 76.125 188.87 76.161L190.082 75.151ZM188.9 74.5631H184.388V76.1409H188.9V74.5631ZM184.388 74.5631C183.859 74.5631 183.461 74.8259 183.19 75.151L184.402 76.161C184.432 76.1254 184.443 76.1228 184.432 76.1289C184.426 76.1319 184.418 76.1355 184.408 76.138C184.397 76.1406 184.39 76.1409 184.388 76.1409V74.5631ZM183.171 75.175C182.905 75.5213 182.783 75.8985 182.783 76.296H184.361C184.361 76.2612 184.366 76.2398 184.371 76.2237C184.377 76.2073 184.389 76.1792 184.422 76.137L183.171 75.175ZM182.783 76.296V84.072H184.361V76.296H182.783ZM182.783 84.072C182.783 84.4644 182.902 84.8554 183.19 85.201L184.402 84.191C184.381 84.1648 184.373 84.1478 184.37 84.1379C184.366 84.1272 184.361 84.1077 184.361 84.072H182.783ZM183.171 85.177C183.47 85.5657 183.887 85.7889 184.388 85.7889V84.2111C184.381 84.2111 184.383 84.2104 184.391 84.2122C184.399 84.2141 184.41 84.2177 184.421 84.2233C184.432 84.2288 184.438 84.2336 184.439 84.2344C184.439 84.2349 184.433 84.2299 184.422 84.215L183.171 85.177ZM184.388 85.7889H188.9V84.2111H184.388V85.7889ZM188.9 85.7889C189.395 85.7889 189.809 85.5576 190.102 85.177L188.851 84.215C188.84 84.2299 188.833 84.2356 188.833 84.2359C188.833 84.2359 188.838 84.2316 188.848 84.2263C188.858 84.2209 188.87 84.2166 188.881 84.2139C188.893 84.2112 188.9 84.2111 188.9 84.2111V85.7889ZM190.082 85.201C190.346 84.8847 190.505 84.5021 190.505 84.072H188.927C188.927 84.0899 188.927 84.1233 188.87 84.191L190.082 85.201ZM190.505 84.072V76.296H188.927V84.072H190.505ZM186.463 82.488C186.463 82.5319 186.453 82.4518 186.52 82.3325C186.558 82.2645 186.626 82.1761 186.738 82.1057C186.854 82.0332 186.979 82.0031 187.092 82.0031V83.5809C187.462 83.5809 187.748 83.369 187.897 83.1035C188.019 82.8842 188.041 82.6521 188.041 82.488H186.463ZM187.092 82.0031H186.212V83.5809H187.092V82.0031ZM186.212 82.0031C186.278 82.0031 186.388 82.0158 186.508 82.0809C186.633 82.1488 186.716 82.2454 186.765 82.3325C186.809 82.411 186.821 82.4735 186.824 82.4911C186.827 82.5107 186.825 82.5129 186.825 82.488H185.247C185.247 82.6169 185.256 82.8671 185.388 83.1035C185.465 83.2406 185.584 83.3742 185.754 83.4666C185.918 83.5562 186.082 83.5809 186.212 83.5809V82.0031ZM186.825 82.488V77.864H185.247V82.488H186.825ZM186.825 77.864C186.825 77.8047 186.838 77.8899 186.771 78.014C186.73 78.0902 186.656 78.1852 186.537 78.257C186.417 78.3289 186.298 78.3489 186.212 78.3489V76.7711C186.062 76.7711 185.89 76.8051 185.725 76.904C185.56 77.0028 185.451 77.1378 185.382 77.266C185.259 77.4941 185.247 77.7313 185.247 77.864H186.825ZM186.212 78.3489H187.092V76.7711H186.212V78.3489ZM187.092 78.3489C186.954 78.3489 186.82 78.3059 186.709 78.2291C186.604 78.1568 186.545 78.0719 186.514 78.014C186.457 77.9084 186.463 77.8395 186.463 77.864H188.041C188.041 77.6965 188.016 77.4756 187.903 77.266C187.779 77.0349 187.508 76.7711 187.092 76.7711V78.3489ZM186.463 77.864V82.488H188.041V77.864H186.463ZM196.303 82.792H195.514V83.5809H196.303V82.792ZM197.519 82.792V83.5809H198.308V82.792H197.519ZM197.519 81.224L197.2 80.5023L196.73 80.71V81.224H197.519ZM199.983 80.136H200.772V78.9253L199.664 79.4143L199.983 80.136ZM199.983 85V85.7889H200.772V85H199.983ZM193.839 85H193.05V85.7889H193.839V85ZM193.839 75.352V74.5631H193.05V75.352H193.839ZM196.303 75.352H197.092V74.5631H196.303V75.352ZM196.303 83.5809H197.519V82.0031H196.303V83.5809ZM198.308 82.792V81.224H196.73V82.792H198.308ZM197.837 81.9457L200.301 80.8577L199.664 79.4143L197.2 80.5023L197.837 81.9457ZM199.194 80.136V85H200.772V80.136H199.194ZM199.983 84.2111H193.839V85.7889H199.983V84.2111ZM194.628 85V75.352H193.05V85H194.628ZM193.839 76.1409H196.303V74.5631H193.839V76.1409ZM195.514 75.352V82.792H197.092V75.352H195.514ZM200.394 85H199.605V85.7889H200.394V85ZM206.138 85V85.7889H206.927V85H206.138ZM206.138 82.2H206.927V80.667L205.679 81.5581L206.138 82.2ZM202.858 82.792H202.069V83.5809H202.858V82.792ZM202.858 81.288V80.4991H202.069V81.288H202.858ZM204.858 81.448L205.281 80.7824L205.247 80.7606L205.21 80.7424L204.858 81.448ZM205.45 81.816L205.058 82.5009L206.239 83.1754V81.816H205.45ZM205.45 78.552H206.239V77.107L205.023 77.8884L205.45 78.552ZM204.826 78.92L204.473 78.2144L204.45 78.2258L204.428 78.2386L204.826 78.92ZM202.858 79.08H202.069V79.8689H202.858V79.08ZM202.858 77.56V76.7711H202.069V77.56H202.858ZM205.514 77.752L205.076 78.4084V78.4084L205.514 77.752ZM206.138 78.152L205.746 78.8369L206.927 79.5114V78.152H206.138ZM206.138 75.352H206.927V74.5631H206.138V75.352ZM200.394 75.352V74.5631H199.605V75.352H200.394ZM200.394 85.7889H206.138V84.2111H200.394V85.7889ZM206.927 85V82.2H205.349V85H206.927ZM205.679 81.5581C205.467 81.7097 205.3 81.8103 205.076 81.9596L205.951 83.2724C206.111 83.1657 206.36 83.0103 206.596 82.8419L205.679 81.5581ZM205.076 81.9596C205.061 81.9697 205.011 82.0031 204.81 82.0031V83.5809C205.185 83.5809 205.582 83.5183 205.951 83.2724L205.076 81.9596ZM204.81 82.0031H202.858V83.5809H204.81V82.0031ZM203.647 82.792V81.288H202.069V82.792H203.647ZM202.858 82.0769H204.202V80.4991H202.858V82.0769ZM204.202 82.0769C204.313 82.0769 204.4 82.1013 204.505 82.1536L205.21 80.7424C204.931 80.6027 204.603 80.4991 204.202 80.4991V82.0769ZM204.434 82.1136C204.594 82.215 204.813 82.3606 205.058 82.5009L205.841 81.1311C205.639 81.0154 205.474 80.905 205.281 80.7824L204.434 82.1136ZM206.239 81.816V78.552H204.661V81.816H206.239ZM205.023 77.8884C204.802 78.0307 204.624 78.1388 204.473 78.2144L205.178 79.6256C205.411 79.5092 205.65 79.3613 205.876 79.2156L205.023 77.8884ZM204.428 78.2386C204.374 78.2701 204.307 78.2911 204.202 78.2911V79.8689C204.544 79.8689 204.893 79.7939 205.223 79.6014L204.428 78.2386ZM204.202 78.2911H202.858V79.8689H204.202V78.2911ZM203.647 79.08V77.56H202.069V79.08H203.647ZM202.858 78.3489H204.81V76.7711H202.858V78.3489ZM204.81 78.3489C204.97 78.3489 205.035 78.3813 205.076 78.4084L205.951 77.0956C205.608 76.8667 205.225 76.7711 204.81 76.7711V78.3489ZM205.076 78.4084C205.252 78.526 205.492 78.6916 205.746 78.8369L206.529 77.4671C206.335 77.3564 206.159 77.234 205.951 77.0956L205.076 78.4084ZM206.927 78.152V75.352H205.349V78.152H206.927ZM206.138 74.5631H200.394V76.1409H206.138V74.5631ZM199.605 75.352V85H201.183V75.352H199.605ZM209.022 82.792H208.233V83.5809H209.022V82.792ZM210.238 82.792V83.5809H211.027V82.792H210.238ZM210.238 81.224L209.919 80.5023L209.449 80.71V81.224H210.238ZM212.702 80.136H213.491V78.9253L212.383 79.4143L212.702 80.136ZM212.702 85V85.7889H213.491V85H212.702ZM206.558 85H205.769V85.7889H206.558V85ZM206.558 75.352V74.5631H205.769V75.352H206.558ZM209.022 75.352H209.811V74.5631H209.022V75.352ZM209.022 83.5809H210.238V82.0031H209.022V83.5809ZM211.027 82.792V81.224H209.449V82.792H211.027ZM210.557 81.9457L213.021 80.8577L212.383 79.4143L209.919 80.5023L210.557 81.9457ZM211.913 80.136V85H213.491V80.136H211.913ZM212.702 84.2111H206.558V85.7889H212.702V84.2111ZM207.347 85V75.352H205.769V85H207.347ZM206.558 76.1409H209.022V74.5631H206.558V76.1409ZM208.233 75.352V82.792H209.811V75.352H208.233ZM219.017 75.656L219.642 75.175L219.633 75.1628L219.623 75.151L219.017 75.656ZM213.337 75.656L212.731 75.151L212.721 75.1628L212.712 75.175L213.337 75.656ZM213.337 84.696L213.962 84.215L213.953 84.2028L213.943 84.191L213.337 84.696ZM219.017 84.696L218.411 84.191L218.401 84.2028L218.392 84.215L219.017 84.696ZM220.046 76.296C220.046 75.8631 219.885 75.4905 219.642 75.175L218.392 76.137C218.469 76.2375 218.468 76.2809 218.468 76.296H220.046ZM219.623 75.151C219.359 74.8344 218.963 74.5631 218.441 74.5631V76.1409C218.431 76.1409 218.418 76.1395 218.405 76.1361C218.392 76.1327 218.382 76.1285 218.377 76.1257C218.368 76.1205 218.381 76.125 218.411 76.161L219.623 75.151ZM218.441 74.5631H213.929V76.1409H218.441V74.5631ZM213.929 74.5631C213.4 74.5631 213.002 74.8259 212.731 75.151L213.943 76.161C213.973 76.1254 213.984 76.1228 213.973 76.1289C213.967 76.1319 213.958 76.1355 213.948 76.138C213.938 76.1406 213.931 76.1409 213.929 76.1409V74.5631ZM212.712 75.175C212.445 75.5213 212.324 75.8985 212.324 76.296H213.902C213.902 76.2612 213.906 76.2398 213.912 76.2237C213.918 76.2073 213.93 76.1792 213.962 76.137L212.712 75.175ZM212.324 76.296V84.072H213.902V76.296H212.324ZM212.324 84.072C212.324 84.4644 212.443 84.8554 212.731 85.201L213.943 84.191C213.921 84.1648 213.914 84.1478 213.91 84.1379C213.907 84.1272 213.902 84.1077 213.902 84.072H212.324ZM212.712 85.177C213.011 85.5657 213.428 85.7889 213.929 85.7889V84.2111C213.922 84.2111 213.924 84.2104 213.932 84.2122C213.94 84.2141 213.951 84.2177 213.962 84.2233C213.972 84.2288 213.978 84.2336 213.979 84.2344C213.98 84.2349 213.974 84.2299 213.962 84.215L212.712 85.177ZM213.929 85.7889H218.441V84.2111H213.929V85.7889ZM218.441 85.7889C218.936 85.7889 219.35 85.5576 219.642 85.177L218.392 84.215C218.38 84.2299 218.374 84.2356 218.373 84.2359C218.373 84.2359 218.378 84.2316 218.389 84.2263C218.399 84.2209 218.411 84.2166 218.422 84.2139C218.433 84.2112 218.44 84.2111 218.441 84.2111V85.7889ZM219.623 85.201C219.887 84.8847 220.046 84.5021 220.046 84.072H218.468C218.468 84.0899 218.467 84.1233 218.411 84.191L219.623 85.201ZM220.046 84.072V76.296H218.468V84.072H220.046ZM216.004 82.488C216.004 82.5319 215.994 82.4518 216.061 82.3325C216.099 82.2645 216.167 82.1761 216.279 82.1057C216.394 82.0332 216.52 82.0031 216.633 82.0031V83.5809C217.003 83.5809 217.289 83.369 217.437 83.1035C217.56 82.8842 217.582 82.6521 217.582 82.488H216.004ZM216.633 82.0031H215.753V83.5809H216.633V82.0031ZM215.753 82.0031C215.819 82.0031 215.929 82.0158 216.049 82.0809C216.173 82.1488 216.257 82.2454 216.305 82.3325C216.349 82.411 216.361 82.4735 216.364 82.4911C216.368 82.5107 216.366 82.5129 216.366 82.488H214.788C214.788 82.6169 214.796 82.8671 214.929 83.1035C215.005 83.2406 215.125 83.3742 215.294 83.4666C215.459 83.5562 215.623 83.5809 215.753 83.5809V82.0031ZM216.366 82.488V77.864H214.788V82.488H216.366ZM216.366 77.864C216.366 77.8047 216.378 77.8899 216.312 78.014C216.271 78.0902 216.197 78.1852 216.077 78.257C215.958 78.3289 215.839 78.3489 215.753 78.3489V76.7711C215.603 76.7711 215.43 76.8051 215.266 76.904C215.101 77.0028 214.991 77.1378 214.922 77.266C214.8 77.4941 214.788 77.7313 214.788 77.864H216.366ZM215.753 78.3489H216.633V76.7711H215.753V78.3489ZM216.633 78.3489C216.495 78.3489 216.36 78.3059 216.249 78.2291C216.145 78.1568 216.086 78.0719 216.054 78.014C215.998 77.9084 216.004 77.8395 216.004 77.864H217.582C217.582 77.6965 217.556 77.4756 217.444 77.266C217.319 77.0349 217.049 76.7711 216.633 76.7711V78.3489ZM216.004 77.864V82.488H217.582V77.864H216.004Z" fill="black"/>
</g>
<g filter="url(#filter1_d_97_1903)">
<path d="M17.216 20H14.368V8.816H17.216V20ZM20.4741 20H17.6261V8.816H20.4741V20ZM23.0283 20H25.8923V11.36H26.5163C26.8363 11.36 27.1083 11.44 27.3323 11.584C27.5563 11.744 27.7803 11.888 28.0363 12.048V8.816H20.8843V12.048C21.1243 11.904 21.3483 11.76 21.5723 11.6C21.7803 11.44 22.0523 11.36 22.3723 11.36H23.0283V20ZM36.4381 17.088C36.4381 17.344 36.3741 17.456 36.2461 17.456H35.2221C35.0781 17.456 35.0141 17.344 35.0141 17.088V11.728C35.0141 11.488 35.0781 11.36 35.2221 11.36H36.4381V12.592L39.2861 11.328V8.816H33.1101C32.8381 8.816 32.6141 8.944 32.4381 9.168C32.2461 9.392 32.1661 9.632 32.1661 9.888V18.928C32.1661 19.184 32.2461 19.44 32.4381 19.664C32.6141 19.888 32.8381 20 33.1101 20H38.3421C38.5981 20 38.8221 19.888 39.0141 19.664C39.1901 19.44 39.2861 19.184 39.2861 18.928V12.224L35.5581 13.856V16.48L36.4381 16.112V17.088ZM43.3855 17.792H42.3455C42.2175 17.792 42.1695 17.696 42.1695 17.488V10.352H39.7055V19.072C39.7055 19.296 39.7695 19.504 39.9295 19.696C40.0895 19.904 40.2815 20 40.5215 20H45.8495V10.352H43.3855V17.792ZM48.7245 17.488V10.352H46.2605V19.072C46.2605 19.296 46.3245 19.504 46.4845 19.696C46.6445 19.904 46.8365 20 47.0765 20H56.1005V10.352H53.6365V17.792H52.4045V10.352H49.9405V17.792H48.9005C48.7725 17.792 48.7245 17.696 48.7245 17.488ZM60.1986 20H62.6626V10.352H57.3346C57.0946 10.352 56.9026 10.464 56.7426 10.656C56.5826 10.864 56.5186 11.072 56.5186 11.296V20H58.9826V18.176L60.1986 17.424V20ZM60.1986 14.96L58.9826 15.712V12.864C58.9826 12.672 59.0306 12.56 59.1586 12.56H60.1986V14.96ZM66.7536 20H69.2176V10.352H66.7536V13.584L65.5376 14.32V10.352H63.0736V20H65.5376V16.784L66.7536 16.048V20ZM73.3086 20H75.7726V10.352H70.4446C70.2046 10.352 70.0126 10.464 69.8526 10.656C69.6926 10.864 69.6286 11.072 69.6286 11.296V20H72.0926V18.176L73.3086 17.424V20ZM73.3086 14.96L72.0926 15.712V12.864C72.0926 12.672 72.1406 12.56 72.2686 12.56H73.3086V14.96ZM78.0396 20H80.5036V12.56H81.0316C81.3196 12.56 81.5436 12.624 81.7356 12.752C81.9276 12.88 82.1356 13.024 82.3596 13.152V10.352H76.1836V13.152C76.3916 13.024 76.5836 12.88 76.7596 12.752C76.9356 12.624 77.1756 12.56 77.4636 12.56H78.0396V20ZM85.2339 20H82.7699V10.352H85.2339V20ZM85.653 8.816V12.304L88.117 11.152V8.816H85.653ZM92.2161 17.488C92.2161 17.696 92.1521 17.792 92.0561 17.792H91.1761C91.0481 17.792 91.0001 17.696 91.0001 17.488V17.024L88.5361 15.936V19.072C88.5361 19.296 88.6001 19.504 88.7601 19.696C88.9201 19.904 89.1121 20 89.3521 20H93.8641C94.0881 20 94.2801 19.904 94.4401 19.696C94.6001 19.504 94.6801 19.296 94.6801 19.072V15.28L91.0001 13.648V12.8C91.0001 12.64 91.0641 12.56 91.1761 12.56H92.0561C92.1521 12.56 92.2161 12.672 92.2161 12.864V13.408L94.6801 14.48V11.296C94.6801 11.072 94.6001 10.864 94.4401 10.656C94.2801 10.464 94.0881 10.352 93.8641 10.352H89.3521C89.1121 10.352 88.9201 10.464 88.7601 10.656C88.6001 10.864 88.5361 11.072 88.5361 11.296V15.168L92.2161 16.8V17.488Z" fill="white"/>
<path d="M17.216 20V20.7652H17.9812V20H17.216ZM14.368 20H13.6028V20.7652H14.368V20ZM14.368 8.816V8.05078H13.6028V8.816H14.368ZM17.216 8.816H17.9812V8.05078H17.216V8.816ZM17.216 19.2348H14.368V20.7652H17.216V19.2348ZM15.1332 20V8.816H13.6028V20H15.1332ZM14.368 9.58122H17.216V8.05078H14.368V9.58122ZM16.4508 8.816V20H17.9812V8.816H16.4508ZM20.4741 20V20.7652H21.2393V20H20.4741ZM17.6261 20H16.8609V20.7652H17.6261V20ZM17.6261 8.816V8.05078H16.8609V8.816H17.6261ZM20.4741 8.816H21.2393V8.05078H20.4741V8.816ZM20.4741 19.2348H17.6261V20.7652H20.4741V19.2348ZM18.3913 20V8.816H16.8609V20H18.3913ZM17.6261 9.58122H20.4741V8.05078H17.6261V9.58122ZM19.7089 8.816V20H21.2393V8.816H19.7089ZM23.0282 20H22.263V20.7652H23.0282V20ZM25.8923 20V20.7652H26.6575V20H25.8923ZM25.8923 11.36V10.5948H25.127V11.36H25.8923ZM27.3323 11.584L27.777 10.9613L27.7618 10.9504L27.746 10.9403L27.3323 11.584ZM28.0363 12.048L27.6307 12.6969L28.8015 13.4286V12.048H28.0363ZM28.0363 8.816H28.8015V8.05078H28.0363V8.816ZM20.8843 8.816V8.05078H20.119V8.816H20.8843ZM20.8843 12.048H20.119V13.3995L21.278 12.7042L20.8843 12.048ZM21.5723 11.6L22.017 12.2227L22.0281 12.2148L22.0388 12.2065L21.5723 11.6ZM23.0282 11.36H23.7935V10.5948H23.0282V11.36ZM23.0282 20.7652H25.8923V19.2348H23.0282V20.7652ZM26.6575 20V11.36H25.127V20H26.6575ZM25.8923 12.1252H26.5163V10.5948H25.8923V12.1252ZM26.5163 12.1252C26.7039 12.1252 26.8294 12.1705 26.9185 12.2277L27.746 10.9403C27.3871 10.7095 26.9686 10.5948 26.5163 10.5948V12.1252ZM26.8875 12.2067C27.1309 12.3806 27.3708 12.5344 27.6307 12.6969L28.4418 11.3991C28.1897 11.2416 27.9816 11.1074 27.777 10.9613L26.8875 12.2067ZM28.8015 12.048V8.816H27.271V12.048H28.8015ZM28.0363 8.05078H20.8843V9.58122H28.0363V8.05078ZM20.119 8.816V12.048H21.6495V8.816H20.119ZM21.278 12.7042C21.5312 12.5522 21.7729 12.3971 22.017 12.2227L21.1275 10.9773C20.9236 11.1229 20.7173 11.2558 20.4905 11.3918L21.278 12.7042ZM22.0388 12.2065C22.0826 12.1729 22.1781 12.1252 22.3723 12.1252V10.5948C21.9264 10.5948 21.4779 10.7071 21.1057 10.9935L22.0388 12.2065ZM22.3723 12.1252H23.0282V10.5948H22.3723V12.1252ZM22.263 11.36V20H23.7935V11.36H22.263ZM36.4381 11.36H37.2033V10.5948H36.4381V11.36ZM36.4381 12.592H35.6729V13.7688L36.7485 13.2914L36.4381 12.592ZM39.2861 11.328L39.5965 12.0274L40.0513 11.8256V11.328H39.2861ZM39.2861 8.816H40.0513V8.05078H39.2861V8.816ZM32.4381 9.168L33.0191 9.666L33.0297 9.6536L33.0398 9.64077L32.4381 9.168ZM32.4381 19.664L33.0398 19.1912L33.0297 19.1784L33.0191 19.166L32.4381 19.664ZM39.0141 19.664L39.5951 20.162L39.6057 20.1496L39.6158 20.1368L39.0141 19.664ZM39.2861 12.224H40.0513V11.0537L38.9793 11.523L39.2861 12.224ZM35.5581 13.856L35.2513 13.155L34.7929 13.3557V13.856H35.5581ZM35.5581 16.48H34.7929V17.6294L35.8533 17.186L35.5581 16.48ZM36.4381 16.112H37.2033V14.9626L36.1429 15.406L36.4381 16.112ZM35.6729 17.088C35.6729 17.1225 35.6706 17.132 35.672 17.1238C35.6731 17.1175 35.6812 17.0712 35.7149 17.0079C35.7515 16.9392 35.8199 16.8487 35.9344 16.7795C36.0494 16.7101 36.1635 16.6908 36.2461 16.6908V18.2212C36.3927 18.2212 36.5628 18.1879 36.7258 18.0895C36.8884 17.9913 36.9967 17.8568 37.0653 17.7281C37.1878 17.4984 37.2033 17.2515 37.2033 17.088H35.6729ZM36.2461 16.6908H35.2221V18.2212H36.2461V16.6908ZM35.2221 16.6908C35.2858 16.6908 35.3884 16.7036 35.4989 16.7647C35.6128 16.8276 35.6871 16.9152 35.7299 16.9907C35.7685 17.059 35.7782 17.1107 35.7798 17.1198C35.7817 17.1306 35.7793 17.1229 35.7793 17.088H34.2489C34.2489 17.2481 34.2631 17.5066 34.3984 17.7453C34.4752 17.8808 34.5925 18.0124 34.7589 18.1043C34.9219 18.1944 35.0865 18.2212 35.2221 18.2212V16.6908ZM35.7793 17.088V11.728H34.2489V17.088H35.7793ZM35.7793 11.728C35.7793 11.6497 35.7944 11.7138 35.7351 11.8219C35.6986 11.8884 35.632 11.9743 35.5226 12.0399C35.4124 12.106 35.3028 12.1252 35.2221 12.1252V10.5948C35.0694 10.5948 34.8979 10.63 34.7352 10.7276C34.5733 10.8247 34.4636 10.9576 34.3932 11.0861C34.2659 11.3182 34.2489 11.5663 34.2489 11.728H35.7793ZM35.2221 12.1252H36.4381V10.5948H35.2221V12.1252ZM35.6729 11.36V12.592H37.2033V11.36H35.6729ZM36.7485 13.2914L39.5965 12.0274L38.9757 10.6286L36.1277 11.8926L36.7485 13.2914ZM40.0513 11.328V8.816H38.5209V11.328H40.0513ZM39.2861 8.05078H33.1101V9.58122H39.2861V8.05078ZM33.1101 8.05078C32.5604 8.05078 32.1288 8.32315 31.8364 8.69523L33.0398 9.64077C33.0744 9.5968 33.0962 9.58426 33.0995 9.58252C33.1 9.58222 33.1004 9.58203 33.1007 9.58193C33.1009 9.58182 33.101 9.58178 33.101 9.58178C33.101 9.58178 33.1009 9.5818 33.1009 9.58183C33.1008 9.58184 33.1008 9.58185 33.1008 9.58186C33.1007 9.58187 33.1007 9.58187 33.1007 9.58187C33.1007 9.58187 33.1007 9.58186 33.1008 9.58185C33.1008 9.58184 33.1009 9.58182 33.1011 9.5818C33.1013 9.58175 33.1017 9.58168 33.1024 9.5816C33.1037 9.58144 33.1062 9.58122 33.1101 9.58122V8.05078ZM31.8571 8.67C31.5442 9.03505 31.4009 9.45247 31.4009 9.888H32.9313C32.9313 9.81153 32.948 9.74895 33.0191 9.666L31.8571 8.67ZM31.4009 9.888V18.928H32.9313V9.888H31.4009ZM31.4009 18.928C31.4009 19.3519 31.537 19.7885 31.8571 20.162L33.0191 19.166C32.9553 19.0915 32.9313 19.0161 32.9313 18.928H31.4009ZM31.8364 20.1368C32.1495 20.5353 32.5907 20.7652 33.1101 20.7652V19.2348C33.0949 19.2348 33.0867 19.2332 33.0837 19.2326C33.0821 19.2322 33.0812 19.2319 33.081 19.2318C33.0807 19.2317 33.0806 19.2317 33.0803 19.2316C33.0803 19.2315 33.0773 19.2301 33.0713 19.2251C33.0651 19.2198 33.0542 19.2095 33.0398 19.1912L31.8364 20.1368ZM33.1101 20.7652H38.3421V19.2348H33.1101V20.7652ZM38.3421 20.7652C38.8568 20.7652 39.2824 20.5269 39.5951 20.162L38.4331 19.166C38.3919 19.2141 38.3659 19.2285 38.3599 19.2316C38.3566 19.2332 38.355 19.2336 38.3542 19.2338C38.3534 19.234 38.3499 19.2348 38.3421 19.2348V20.7652ZM39.6158 20.1368C39.8824 19.7974 40.0513 19.3787 40.0513 18.928H38.5209C38.5209 18.9893 38.4978 19.0826 38.4124 19.1912L39.6158 20.1368ZM40.0513 18.928V12.224H38.5209V18.928H40.0513ZM38.9793 11.523L35.2513 13.155L35.865 14.557L39.593 12.925L38.9793 11.523ZM34.7929 13.856V16.48H36.3233V13.856H34.7929ZM35.8533 17.186L36.7334 16.818L36.1429 15.406L35.2629 15.774L35.8533 17.186ZM35.6729 16.112V17.088H37.2033V16.112H35.6729ZM43.3855 17.792V18.5572H44.1507V17.792H43.3855ZM42.1695 10.352H42.9347V9.58678H42.1695V10.352ZM39.7055 10.352V9.58678H38.9403V10.352H39.7055ZM39.9295 19.696L40.536 19.2294L40.5269 19.2176L40.5174 19.2061L39.9295 19.696ZM45.8495 20V20.7652H46.6147V20H45.8495ZM45.8495 10.352H46.6147V9.58678H45.8495V10.352ZM43.3855 10.352V9.58678H42.6203V10.352H43.3855ZM43.3855 17.0268H42.3455V18.5572H43.3855V17.0268ZM42.3455 17.0268C42.4086 17.0268 42.5145 17.0389 42.6299 17.1017C42.7502 17.1672 42.8302 17.2604 42.8772 17.3441C42.9193 17.4194 42.9307 17.4791 42.9334 17.4951C42.9364 17.5129 42.9347 17.5137 42.9347 17.488H41.4043C41.4043 17.6161 41.4126 17.8611 41.5418 18.0919C41.6168 18.2256 41.7328 18.3558 41.8981 18.4458C42.0585 18.5331 42.2184 18.5572 42.3455 18.5572V17.0268ZM42.9347 17.488V10.352H41.4043V17.488H42.9347ZM42.1695 9.58678H39.7055V11.1172H42.1695V9.58678ZM38.9403 10.352V19.072H40.4707V10.352H38.9403ZM38.9403 19.072C38.9403 19.4594 39.0574 19.8448 39.3416 20.1859L40.5174 19.2061C40.4938 19.1779 40.485 19.1584 40.4806 19.1457C40.4759 19.1321 40.4707 19.11 40.4707 19.072H38.9403ZM39.323 20.1626C39.6178 20.5459 40.028 20.7652 40.5215 20.7652V19.2348C40.5127 19.2348 40.5127 19.2339 40.5188 19.2353C40.5218 19.236 40.5256 19.2371 40.5301 19.2387C40.5346 19.2403 40.5391 19.2422 40.5433 19.2444C40.5522 19.2489 40.5565 19.2527 40.5562 19.2523C40.5554 19.2517 40.5483 19.2454 40.536 19.2294L39.323 20.1626ZM40.5215 20.7652H45.8495V19.2348H40.5215V20.7652ZM46.6147 20V10.352H45.0843V20H46.6147ZM45.8495 9.58678H43.3855V11.1172H45.8495V9.58678ZM42.6203 10.352V17.792H44.1507V10.352H42.6203ZM48.7245 10.352H49.4897V9.58678H48.7245V10.352ZM46.2605 10.352V9.58678H45.4953V10.352H46.2605ZM46.4845 19.696L47.091 19.2294L47.0819 19.2176L47.0724 19.2061L46.4845 19.696ZM56.1005 20V20.7652H56.8657V20H56.1005ZM56.1005 10.352H56.8657V9.58678H56.1005V10.352ZM53.6365 10.352V9.58678H52.8713V10.352H53.6365ZM53.6365 17.792V18.5572H54.4017V17.792H53.6365ZM52.4045 17.792H51.6393V18.5572H52.4045V17.792ZM52.4045 10.352H53.1697V9.58678H52.4045V10.352ZM49.9405 10.352V9.58678H49.1753V10.352H49.9405ZM49.9405 17.792V18.5572H50.7057V17.792H49.9405ZM49.4897 17.488V10.352H47.9593V17.488H49.4897ZM48.7245 9.58678H46.2605V11.1172H48.7245V9.58678ZM45.4953 10.352V19.072H47.0257V10.352H45.4953ZM45.4953 19.072C45.4953 19.4594 45.6124 19.8448 45.8966 20.1859L47.0724 19.2061C47.0488 19.1779 47.04 19.1584 47.0356 19.1457C47.0309 19.1321 47.0257 19.11 47.0257 19.072H45.4953ZM45.878 20.1626C46.1728 20.5459 46.583 20.7652 47.0765 20.7652V19.2348C47.0677 19.2348 47.0677 19.2339 47.0738 19.2353C47.0768 19.236 47.0806 19.2371 47.0851 19.2387C47.0896 19.2403 47.0941 19.2422 47.0983 19.2444C47.1072 19.2489 47.1115 19.2527 47.1112 19.2523C47.1104 19.2517 47.1033 19.2454 47.091 19.2294L45.878 20.1626ZM47.0765 20.7652H56.1005V19.2348H47.0765V20.7652ZM56.8657 20V10.352H55.3353V20H56.8657ZM56.1005 9.58678H53.6365V11.1172H56.1005V9.58678ZM52.8713 10.352V17.792H54.4017V10.352H52.8713ZM53.6365 17.0268H52.4045V18.5572H53.6365V17.0268ZM53.1697 17.792V10.352H51.6393V17.792H53.1697ZM52.4045 9.58678H49.9405V11.1172H52.4045V9.58678ZM49.1753 10.352V17.792H50.7057V10.352H49.1753ZM49.9405 17.0268H48.9005V18.5572H49.9405V17.0268ZM48.9005 17.0268C48.9636 17.0268 49.0695 17.0389 49.1849 17.1017C49.3052 17.1672 49.3853 17.2604 49.4322 17.3441C49.4743 17.4194 49.4857 17.4791 49.4884 17.4951C49.4914 17.5129 49.4897 17.5137 49.4897 17.488H47.9593C47.9593 17.6161 47.9676 17.8611 48.0968 18.0919C48.1717 18.2256 48.2878 18.3558 48.4531 18.4458C48.6135 18.5331 48.7734 18.5572 48.9005 18.5572V17.0268ZM60.1986 20H59.4334V20.7652H60.1986V20ZM62.6626 20V20.7652H63.4278V20H62.6626ZM62.6626 10.352H63.4278V9.58678H62.6626V10.352ZM56.7426 10.656L56.1548 10.1661L56.1452 10.1776L56.1361 10.1894L56.7426 10.656ZM56.5186 20H55.7534V20.7652H56.5186V20ZM58.9826 20V20.7652H59.7478V20H58.9826ZM58.9826 18.176L58.5801 17.5252L58.2174 17.7495V18.176H58.9826ZM60.1986 17.424H60.9638V16.0511L59.7961 16.7732L60.1986 17.424ZM60.1986 14.96L60.6011 15.6108L60.9638 15.3865V14.96H60.1986ZM58.9826 15.712H58.2174V17.0849L59.3851 16.3628L58.9826 15.712ZM60.1986 12.56H60.9638V11.7948H60.1986V12.56ZM60.1986 20.7652H62.6626V19.2348H60.1986V20.7652ZM63.4278 20V10.352H61.8974V20H63.4278ZM62.6626 9.58678H57.3346V11.1172H62.6626V9.58678ZM57.3346 9.58678C56.8144 9.58678 56.4223 9.84504 56.1548 10.1661L57.3305 11.1459C57.3617 11.1085 57.3754 11.1037 57.3673 11.108C57.3631 11.1102 57.3564 11.113 57.3482 11.1151C57.3443 11.116 57.341 11.1166 57.3384 11.1169C57.3358 11.1172 57.3345 11.1172 57.3346 11.1172V9.58678ZM56.1361 10.1894C55.8729 10.5316 55.7534 10.9037 55.7534 11.296H57.2838C57.2838 11.2589 57.2888 11.2349 57.2952 11.2161C57.3017 11.197 57.3153 11.1666 57.3492 11.1226L56.1361 10.1894ZM55.7534 11.296V20H57.2838V11.296H55.7534ZM56.5186 20.7652H58.9826V19.2348H56.5186V20.7652ZM59.7478 20V18.176H58.2174V20H59.7478ZM59.3851 18.8268L60.6011 18.0748L59.7961 16.7732L58.5801 17.5252L59.3851 18.8268ZM59.4334 17.424V20H60.9638V17.424H59.4334ZM59.7961 14.3092L58.5801 15.0612L59.3851 16.3628L60.6011 15.6108L59.7961 14.3092ZM59.7478 15.712V12.864H58.2174V15.712H59.7478ZM59.7478 12.864C59.7478 12.8036 59.7603 12.884 59.6964 13.0028C59.657 13.0759 59.5862 13.1675 59.4708 13.2367C59.3552 13.306 59.2411 13.3252 59.1586 13.3252V11.7948C59.0121 11.7948 58.844 11.828 58.6834 11.9243C58.5231 12.0205 58.4162 12.1521 58.3489 12.2772C58.2289 12.5 58.2174 12.7324 58.2174 12.864H59.7478ZM59.1586 13.3252H60.1986V11.7948H59.1586V13.3252ZM59.4334 12.56V14.96H60.9638V12.56H59.4334ZM66.7536 20H65.9884V20.7652H66.7536V20ZM69.2176 20V20.7652H69.9828V20H69.2176ZM69.2176 10.352H69.9828V9.58678H69.2176V10.352ZM66.7536 10.352V9.58678H65.9884V10.352H66.7536ZM66.7536 13.584L67.1499 14.2386L67.5188 14.0153V13.584H66.7536ZM65.5376 14.32H64.7724V15.6776L65.9339 14.9746L65.5376 14.32ZM65.5376 10.352H66.3028V9.58678H65.5376V10.352ZM63.0736 10.352V9.58678H62.3084V10.352H63.0736ZM63.0736 20H62.3084V20.7652H63.0736V20ZM65.5376 20V20.7652H66.3028V20H65.5376ZM65.5376 16.784L65.1414 16.1294L64.7724 16.3527V16.784H65.5376ZM66.7536 16.048H67.5188V14.6904L66.3574 15.3934L66.7536 16.048ZM66.7536 20.7652H69.2176V19.2348H66.7536V20.7652ZM69.9828 20V10.352H68.4524V20H69.9828ZM69.2176 9.58678H66.7536V11.1172H69.2176V9.58678ZM65.9884 10.352V13.584H67.5188V10.352H65.9884ZM66.3574 12.9294L65.1414 13.6654L65.9339 14.9746L67.1499 14.2386L66.3574 12.9294ZM66.3028 14.32V10.352H64.7724V14.32H66.3028ZM65.5376 9.58678H63.0736V11.1172H65.5376V9.58678ZM62.3084 10.352V20H63.8388V10.352H62.3084ZM63.0736 20.7652H65.5376V19.2348H63.0736V20.7652ZM66.3028 20V16.784H64.7724V20H66.3028ZM65.9339 17.4386L67.1499 16.7026L66.3574 15.3934L65.1414 16.1294L65.9339 17.4386ZM65.9884 16.048V20H67.5188V16.048H65.9884ZM73.3086 20H72.5434V20.7652H73.3086V20ZM75.7726 20V20.7652H76.5378V20H75.7726ZM75.7726 10.352H76.5378V9.58678H75.7726V10.352ZM69.8526 10.656L69.2648 10.1661L69.2552 10.1776L69.2461 10.1894L69.8526 10.656ZM69.6286 20H68.8634V20.7652H69.6286V20ZM72.0926 20V20.7652H72.8578V20H72.0926ZM72.0926 18.176L71.6901 17.5252L71.3274 17.7495V18.176H72.0926ZM73.3086 17.424H74.0738V16.0511L72.9061 16.7732L73.3086 17.424ZM73.3086 14.96L73.7111 15.6108L74.0738 15.3865V14.96H73.3086ZM72.0926 15.712H71.3274V17.0849L72.4951 16.3628L72.0926 15.712ZM73.3086 12.56H74.0738V11.7948H73.3086V12.56ZM73.3086 20.7652H75.7726V19.2348H73.3086V20.7652ZM76.5378 20V10.352H75.0074V20H76.5378ZM75.7726 9.58678H70.4446V11.1172H75.7726V9.58678ZM70.4446 9.58678C69.9244 9.58678 69.5323 9.84504 69.2648 10.1661L70.4405 11.1459C70.4717 11.1085 70.4854 11.1037 70.4773 11.108C70.4731 11.1102 70.4664 11.113 70.4582 11.1151C70.4543 11.116 70.451 11.1166 70.4484 11.1169C70.4458 11.1172 70.4445 11.1172 70.4446 11.1172V9.58678ZM69.2461 10.1894C68.9829 10.5316 68.8634 10.9037 68.8634 11.296H70.3938C70.3938 11.2589 70.3988 11.2349 70.4052 11.2161C70.4117 11.197 70.4253 11.1666 70.4592 11.1226L69.2461 10.1894ZM68.8634 11.296V20H70.3938V11.296H68.8634ZM69.6286 20.7652H72.0926V19.2348H69.6286V20.7652ZM72.8578 20V18.176H71.3274V20H72.8578ZM72.4951 18.8268L73.7111 18.0748L72.9061 16.7732L71.6901 17.5252L72.4951 18.8268ZM72.5434 17.424V20H74.0738V17.424H72.5434ZM72.9061 14.3092L71.6901 15.0612L72.4951 16.3628L73.7111 15.6108L72.9061 14.3092ZM72.8578 15.712V12.864H71.3274V15.712H72.8578ZM72.8578 12.864C72.8578 12.8036 72.8703 12.884 72.8064 13.0028C72.767 13.0759 72.6962 13.1675 72.5808 13.2367C72.4652 13.306 72.3511 13.3252 72.2686 13.3252V11.7948C72.1221 11.7948 71.954 11.828 71.7934 11.9243C71.6331 12.0205 71.5262 12.1521 71.4589 12.2772C71.3389 12.5 71.3274 12.7324 71.3274 12.864H72.8578ZM72.2686 13.3252H73.3086V11.7948H72.2686V13.3252ZM72.5434 12.56V14.96H74.0738V12.56H72.5434ZM78.0396 20H77.2744V20.7652H78.0396V20ZM80.5036 20V20.7652H81.2688V20H80.5036ZM80.5036 12.56V11.7948H79.7384V12.56H80.5036ZM81.7356 12.752L81.3112 13.3887V13.3887L81.7356 12.752ZM82.3596 13.152L81.98 13.8164L83.1248 14.4706V13.152H82.3596ZM82.3596 10.352H83.1248V9.58678H82.3596V10.352ZM76.1836 10.352V9.58678H75.4184V10.352H76.1836ZM76.1836 13.152H75.4184V14.5214L76.5847 13.8037L76.1836 13.152ZM76.7596 12.752L77.2097 13.3709L77.2097 13.3709L76.7596 12.752ZM78.0396 12.56H78.8048V11.7948H78.0396V12.56ZM78.0396 20.7652H80.5036V19.2348H78.0396V20.7652ZM81.2688 20V12.56H79.7384V20H81.2688ZM80.5036 13.3252H81.0316V11.7948H80.5036V13.3252ZM81.0316 13.3252C81.1961 13.3252 81.266 13.3586 81.3112 13.3887L82.1601 12.1153C81.8213 11.8894 81.4431 11.7948 81.0316 11.7948V13.3252ZM81.3112 13.3887C81.4881 13.5067 81.7265 13.6715 81.98 13.8164L82.7393 12.4876C82.5448 12.3765 82.3671 12.2533 82.1601 12.1153L81.3112 13.3887ZM83.1248 13.152V10.352H81.5944V13.152H83.1248ZM82.3596 9.58678H76.1836V11.1172H82.3596V9.58678ZM75.4184 10.352V13.152H76.9488V10.352H75.4184ZM76.5847 13.8037C76.8244 13.6562 77.0466 13.4895 77.2097 13.3709L76.3095 12.1331C76.1207 12.2705 75.9588 12.3918 75.7826 12.5003L76.5847 13.8037ZM77.2097 13.3709C77.2152 13.3669 77.2801 13.3252 77.4636 13.3252V11.7948C77.0711 11.7948 76.6561 11.8811 76.3095 12.1331L77.2097 13.3709ZM77.4636 13.3252H78.0396V11.7948H77.4636V13.3252ZM77.2744 12.56V20H78.8048V12.56H77.2744ZM85.2339 20V20.7652H85.9991V20H85.2339ZM82.7699 20H82.0047V20.7652H82.7699V20ZM82.7699 10.352V9.58678H82.0047V10.352H82.7699ZM85.2339 10.352H85.9991V9.58678H85.2339V10.352ZM85.2339 19.2348H82.7699V20.7652H85.2339V19.2348ZM83.5351 20V10.352H82.0047V20H83.5351ZM82.7699 11.1172H85.2339V9.58678H82.7699V11.1172ZM84.4687 10.352V20H85.9991V10.352H84.4687ZM85.653 8.816V8.05078H84.8878V8.816H85.653ZM85.653 12.304H84.8878V13.5065L85.9771 12.9972L85.653 12.304ZM88.117 11.152L88.4411 11.8452L88.8822 11.639V11.152H88.117ZM88.117 8.816H88.8822V8.05078H88.117V8.816ZM84.8878 8.816V12.304H86.4182V8.816H84.8878ZM85.9771 12.9972L88.4411 11.8452L87.7929 10.4588L85.3289 11.6108L85.9771 12.9972ZM88.8822 11.152V8.816H87.3518V11.152H88.8822ZM88.117 8.05078H85.653V9.58122H88.117V8.05078ZM91.0001 17.024H91.7653V16.5254L91.3092 16.324L91.0001 17.024ZM88.5361 15.936L88.8452 15.236L87.7709 14.7616V15.936H88.5361ZM88.7601 19.696L89.3667 19.2294L89.3575 19.2176L89.348 19.2061L88.7601 19.696ZM94.4401 19.696L93.8523 19.2061L93.8427 19.2176L93.8336 19.2294L94.4401 19.696ZM94.6801 15.28H95.4453V14.7823L94.9903 14.5805L94.6801 15.28ZM91.0001 13.648H90.2349V14.1457L90.6899 14.3475L91.0001 13.648ZM92.2161 13.408H91.4509V13.9096L91.9108 14.1097L92.2161 13.408ZM94.6801 14.48L94.3748 15.1817L95.4453 15.6474V14.48H94.6801ZM94.4401 10.656L95.0467 10.1894L95.0375 10.1776L95.028 10.1661L94.4401 10.656ZM88.7601 10.656L88.1723 10.1661L88.1627 10.1776L88.1536 10.1894L88.7601 10.656ZM88.5361 15.168H87.7709V15.6657L88.2259 15.8675L88.5361 15.168ZM92.2161 16.8H92.9813V16.3023L92.5263 16.1005L92.2161 16.8ZM91.4509 17.488C91.4509 17.5337 91.4405 17.4583 91.5045 17.3441C91.541 17.2788 91.6066 17.1936 91.7146 17.1258C91.8259 17.0558 91.947 17.0268 92.0561 17.0268V18.5572C92.4165 18.5572 92.6947 18.351 92.8398 18.0919C92.9597 17.8777 92.9813 17.6503 92.9813 17.488H91.4509ZM92.0561 17.0268H91.1761V18.5572H92.0561V17.0268ZM91.1761 17.0268C91.2392 17.0268 91.3451 17.0389 91.4605 17.1017C91.5809 17.1672 91.6609 17.2604 91.7078 17.3441C91.75 17.4194 91.7613 17.4791 91.764 17.4951C91.7671 17.5129 91.7653 17.5137 91.7653 17.488H90.2349C90.2349 17.6161 90.2432 17.8611 90.3725 18.0919C90.4474 18.2256 90.5634 18.3558 90.7287 18.4458C90.8891 18.5331 91.049 18.5572 91.1761 18.5572V17.0268ZM91.7653 17.488V17.024H90.2349V17.488H91.7653ZM91.3092 16.324L88.8452 15.236L88.227 16.636L90.691 17.724L91.3092 16.324ZM87.7709 15.936V19.072H89.3013V15.936H87.7709ZM87.7709 19.072C87.7709 19.4594 87.888 19.8448 88.1723 20.1859L89.348 19.2061C89.3244 19.1779 89.3156 19.1584 89.3112 19.1457C89.3065 19.1321 89.3013 19.11 89.3013 19.072H87.7709ZM88.1536 20.1626C88.4484 20.5459 88.8586 20.7652 89.3521 20.7652V19.2348C89.3434 19.2348 89.3433 19.2339 89.3494 19.2353C89.3524 19.236 89.3562 19.2371 89.3607 19.2387C89.3652 19.2403 89.3697 19.2422 89.3739 19.2444C89.3828 19.2489 89.3872 19.2527 89.3868 19.2523C89.386 19.2517 89.3789 19.2454 89.3667 19.2294L88.1536 20.1626ZM89.3521 20.7652H93.8641V19.2348H89.3521V20.7652ZM93.8641 20.7652C94.3508 20.7652 94.7578 20.538 95.0467 20.1626L93.8336 19.2294C93.8213 19.2454 93.8137 19.2523 93.8121 19.2537C93.8107 19.2549 93.8142 19.2517 93.8226 19.2473C93.8313 19.2428 93.8411 19.2392 93.8507 19.2369C93.86 19.2347 93.8651 19.2348 93.8641 19.2348V20.7652ZM95.028 20.1859C95.2884 19.8733 95.4453 19.4959 95.4453 19.072H93.9149C93.9149 19.0961 93.9118 19.1347 93.8523 19.2061L95.028 20.1859ZM95.4453 19.072V15.28H93.9149V19.072H95.4453ZM94.9903 14.5805L91.3103 12.9485L90.6899 14.3475L94.3699 15.9795L94.9903 14.5805ZM91.7653 13.648V12.8H90.2349V13.648H91.7653ZM91.7653 12.8C91.7653 12.8038 91.7675 12.9335 91.6583 13.0791C91.5994 13.1577 91.5185 13.2254 91.421 13.2703C91.3265 13.3137 91.2394 13.3252 91.1761 13.3252V11.7948C90.9178 11.7948 90.6301 11.8993 90.4339 12.1609C90.2647 12.3865 90.2349 12.6362 90.2349 12.8H91.7653ZM91.1761 13.3252H92.0561V11.7948H91.1761V13.3252ZM92.0561 13.3252C91.9226 13.3252 91.793 13.2837 91.6861 13.2097C91.5853 13.1399 91.5282 13.0582 91.4984 13.0028C91.444 12.9019 91.4509 12.8374 91.4509 12.864H92.9813C92.9813 12.6986 92.9562 12.4821 92.8459 12.2772C92.7243 12.0515 92.4609 11.7948 92.0561 11.7948V13.3252ZM91.4509 12.864V13.408H92.9813V12.864H91.4509ZM91.9108 14.1097L94.3748 15.1817L94.9854 13.7783L92.5214 12.7063L91.9108 14.1097ZM95.4453 14.48V11.296H93.9149V14.48H95.4453ZM95.4453 11.296C95.4453 10.8694 95.2868 10.5017 95.0467 10.1894L93.8336 11.1226C93.9134 11.2263 93.9149 11.2746 93.9149 11.296H95.4453ZM95.028 10.1661C94.7673 9.85332 94.3769 9.58678 93.8641 9.58678V11.1172C93.8556 11.1172 93.845 11.1161 93.8338 11.1132C93.8228 11.1103 93.8152 11.1068 93.8117 11.1048C93.8053 11.1014 93.8208 11.1081 93.8523 11.1459L95.028 10.1661ZM93.8641 9.58678H89.3521V11.1172H93.8641V9.58678ZM89.3521 9.58678C88.8319 9.58678 88.4398 9.84504 88.1723 10.1661L89.348 11.1459C89.3792 11.1085 89.3929 11.1037 89.3848 11.108C89.3806 11.1102 89.3739 11.113 89.3657 11.1151C89.3618 11.116 89.3585 11.1166 89.3559 11.1169C89.3533 11.1172 89.352 11.1172 89.3521 11.1172V9.58678ZM88.1536 10.1894C87.8904 10.5316 87.7709 10.9037 87.7709 11.296H89.3013C89.3013 11.2589 89.3063 11.2349 89.3127 11.2161C89.3192 11.197 89.3328 11.1666 89.3667 11.1226L88.1536 10.1894ZM87.7709 11.296V15.168H89.3013V11.296H87.7709ZM88.2259 15.8675L91.9059 17.4995L92.5263 16.1005L88.8463 14.4685L88.2259 15.8675ZM91.4509 16.8V17.488H92.9813V16.8H91.4509Z" fill="black"/>
</g>
<defs>
<filter id="filter0_d_97_1903" x="156.367" y="73.816" width="62.8906" height="12.184" filterUnits="userSpaceOnUse" color-interpolation-filters="sRGB">
<feFlood flood-opacity="0" result="BackgroundImageFix"/>
<feColorMatrix in="SourceAlpha" type="matrix" values="0 0 0 0 0 0 0 0 0 0 0 0 0 0 0 0 0 0 127 0" result="hardAlpha"/>
<feOffset dy="1"/>
<feComposite in2="hardAlpha" operator="out"/>
<feColorMatrix type="matrix" values="0 0 0 0 0 0 0 0 0 0 0 0 0 0 0 0 0 0 1 0"/>
<feBlend mode="normal" in2="BackgroundImageFix" result="effect1_dropShadow_97_1903"/>
<feBlend mode="normal" in="SourceGraphic" in2="effect1_dropShadow_97_1903" result="shape"/>
</filter>
<filter id="filter1_d_97_1903" x="14.3672" y="8.81601" width="80.3125" height="12.184" filterUnits="userSpaceOnUse" color-interpolation-filters="sRGB">
<feFlood flood-opacity="0" result="BackgroundImageFix"/>
<feColorMatrix in="SourceAlpha" type="matrix" values="0 0 0 0 0 0 0 0 0 0 0 0 0 0 0 0 0 0 127 0" result="hardAlpha"/>
<feOffset dy="1"/>
<feComposite in2="hardAlpha" operator="out"/>
<feColorMatrix type="matrix" values="0 0 0 0 0 0 0 0 0 0 0 0 0 0 0 0 0 0 1 0"/>
<feBlend mode="normal" in2="BackgroundImageFix" result="effect1_dropShadow_97_1903"/>
<feBlend mode="normal" in="SourceGraphic" in2="effect1_dropShadow_97_1903" result="shape"/>
</filter>
</defs>
</svg>
